<?xml version="1.0" encoding="UTF-8"?>
<!DOCTYPE svg PUBLIC "-//W3C//DTD SVG 1.0//EN" "http://www.w3.org/TR/2001/REC-SVG-20010904/DTD/svg10.dtd">
<!-- Creator: CorelDRAW X7 -->
<svg xmlns="http://www.w3.org/2000/svg" xml:space="preserve" width="3.33333in" height="3.33333in" version="1.0" style="shape-rendering:geometricPrecision; text-rendering:geometricPrecision; image-rendering:optimizeQuality; fill-rule:evenodd; clip-rule:evenodd"
viewBox="0 0 1439 1439"
 xmlns:xlink="http://www.w3.org/1999/xlink">
 <defs>
  <style type="text/css">
   <![CDATA[
    .fil0 {fill:none}
    .fil1 {fill:#99CC33}
   ]]>
  </style>
 </defs>
 <g id="Layer_x0020_1">
  <metadata id="CorelCorpID_0Corel-Layer"/>
  <rect class="fil0" width="1439" height="1439"/>
  <g id="_1901920622112">
   <path class="fil1" d="M751 467c-13,14 -23,25 -22,45 1,24 16,44 38,52 21,7 43,2 59,-14 19,-20 21,-56 1,-76l-7 -7c-16,-16 -53,-16 -69,0z"/>
   <path class="fil1" d="M972 929l0 -37 21 0c19,0 35,-16 35,-36l0 -5 -20 0c-20,0 -36,16 -36,36l0 -46 21 0c19,0 35,-16 35,-36l0 -5 -20 0c-20,0 -36,16 -36,36l0 -46 21 0c19,0 35,-16 35,-36l0 -5 -20 0c-20,0 -36,16 -36,36l0 -46 21 0c19,0 35,-16 35,-35l0 -5 -20 0c-20,0 -36,16 -36,35l0 -33 5 -5c14,-14 14,-37 0,-51 0,0 0,0 0,0l-10 -9 -10 9c-14,14 -14,37 0,51 0,0 0,0 0,0l5 5 0 33c0,-19 -16,-35 -35,-35l-21 0 0 5c0,19 16,35 36,35l20 0 0 46c0,-20 -16,-36 -35,-36l-21 0 0 5c0,20 16,36 36,36l20 0 0 46c0,-20 -16,-36 -35,-36l-21 0 0 5c0,20 16,36 36,36l20 0 0 46c0,-20 -16,-36 -35,-36l-21 0 0 5c0,20 16,36 36,36l20 0 0 37 10 0z"/>
   <path class="fil1" d="M707 790l24 -24 13 13c13,13 33,13 46,0l3 -3 -13 -13c-12,-13 -33,-13 -46,0l30 -30 13 13c13,13 33,13 46,1l4 -3 -13 -14c-13,-12 -34,-13 -46,0l29 -29 13 13c13,13 34,13 46,0l4 -3 -13 -13c-13,-13 -34,-13 -46,-1l29 -29 14 13c12,13 33,13 46,1l3 -4 -13 -13c-13,-13 -33,-13 -46,0l22 -22 6 0c18,1 33,-14 33,-32 0,0 0,0 0,0l0 -13 -13 0c-18,0 -33,15 -33,33 0,0 0,0 0,0l0 6 -22 21c13,-12 13,-33 1,-46l-13 -13 -4 3c-12,13 -13,33 0,46l13 13 -30 30c13,-13 13,-33 1,-46l-13 -14 -4 4c-13,12 -13,33 0,46l13 13 -30 29c13,-12 13,-33 0,-46l-13 -13 -3 3c-13,13 -13,33 0,46l13 14 -30 29c13,-13 13,-33 0,-46l-13 -13 -3 3c-13,12 -13,33 -1,46l14 13 -25 24 7 7z"/>
   <path class="fil1" d="M720 191c-292,0 -529,237 -529,529 0,292 237,528 529,528 292,0 528,-236 528,-528 0,-292 -236,-529 -528,-529zm0 23c279,0 505,226 505,506 0,279 -226,505 -505,505 -280,0 -506,-226 -506,-505 0,-280 226,-506 506,-506z"/>
   <path class="fil1" d="M540 923l-1 0 -1 0 0 0 -1 0 -78 0 0 0 -1 0 -134 0 -2 0c-7,1 -15,4 -18,12l0 6c2,5 6,7 10,9 2,0 5,0 7,0 5,1 10,1 16,1 17,1 33,1 50,1 48,1 97,1 145,1 64,0 128,-1 191,-1l0 0c144,0 194,2 338,0 15,0 29,0 44,-1 5,0 9,0 14,0 2,-1 4,-1 6,-1 4,-1 8,-4 10,-8l0 -7c-3,-9 -12,-12 -21,-12 -191,0 -383,0 -574,0z"/>
   <path class="fil1" d="M547 878c-8,-41 21,-160 -41,-245 -4,-4 -5,-9 -1,-13l1 -1c9,-9 25,29 31,36 7,6 82,-73 89,-105 2,-3 1,-6 5,-6 4,1 7,4 8,8 1,6 -1,16 -2,22 -1,6 -2,11 -3,17l-12 71c-1,5 -1,9 0,14 0,6 2,12 4,18 2,11 4,23 7,35 3,12 4,24 7,35 5,17 10,61 21,72 9,9 24,9 32,0 9,-8 7,-15 9,-26 -6,-11 -7,-23 -8,-33 0,0 0,0 0,0l-23 -105c-1,0 -1,-1 -1,-1 -1,-19 6,-37 9,-55 2,-18 6,-35 9,-53 2,-8 16,-21 16,16 0,2 0,8 1,13 1,0 2,-1 3,-2 13,-6 34,-18 27,-34 -6,-14 -11,-28 -17,-42 -3,-8 -7,-17 -11,-25 -1,-3 -5,-11 -8,-14 -6,-6 -13,-10 -22,-10 -13,-1 -29,7 -41,13 -12,5 -25,10 -37,16 -12,5 -25,11 -37,16 -25,10 -49,21 -74,31 -16,7 -32,14 -47,22 -57,27 -41,76 -5,121 11,13 38,44 45,72 12,54 9,107 17,134 -6,8 -5,33 2,35 10,3 39,0 56,3 5,1 57,0 60,-4 11,-14 -3,-22 -17,-21 -11,1 -38,-8 -42,-21 0,-3 -5,-4 -10,-4z"/>
  </g>
 </g>
</svg>
