<?xml version="1.0" encoding="UTF-8"?>
<!DOCTYPE svg PUBLIC "-//W3C//DTD SVG 1.0//EN" "http://www.w3.org/TR/2001/REC-SVG-20010904/DTD/svg10.dtd">
<!-- Creator: CorelDRAW X7 -->
<svg xmlns="http://www.w3.org/2000/svg" xml:space="preserve" width="3.33333in" height="3.33333in" version="1.0" style="shape-rendering:geometricPrecision; text-rendering:geometricPrecision; image-rendering:optimizeQuality; fill-rule:evenodd; clip-rule:evenodd"
viewBox="0 0 1439 1439"
 xmlns:xlink="http://www.w3.org/1999/xlink">
 <defs>
  <style type="text/css">
   <![CDATA[
    .fil2 {fill:none}
    .fil0 {fill:#753837}
    .fil1 {fill:#99CC33}
   ]]>
  </style>
 </defs>
 <g id="Layer_x0020_1">
  <metadata id="CorelCorpID_0Corel-Layer"/>
  <g id="_1867400775712">
   <path class="fil0" d="M975 731c-4,7 -42,28 -27,119l11 56c2,12 8,39 17,48 11,8 24,11 37,5 11,-6 16,-17 20,-30 6,-25 14,-58 14,-84l0 -30c-2,-53 -40,-129 -72,-84zm20 7c-1,1 -2,3 -3,5 -4,6 -10,10 -16,12 -20,6 -11,71 -8,92l10 55c2,8 7,31 12,37 4,3 8,5 14,2 6,-3 8,-11 9,-17 6,-24 14,-54 14,-79l0 -30c-1,-51 -16,-66 -32,-77zm-396 195c-30,43 -40,43 1,53l55 -9c25,-4 38,-8 59,-22 8,-5 29,-22 35,-31 -2,-2 -6,-4 -8,-4 -3,-2 -8,-3 -12,-4 -6,-1 -16,-1 -23,-1 -9,0 -17,0 -26,0 -22,0 -54,9 -75,16 -2,1 -4,1 -6,2zm-3 -89c0,0 0,0 0,0 7,0 11,-7 16,-12 3,-3 8,-10 10,-15 6,-9 11,-19 15,-29 9,-23 16,-47 20,-71 6,-35 2,-51 -17,-76 -1,1 -3,2 -5,3 -29,11 -29,38 -38,72 -6,23 -12,49 -12,72 0,14 -1,34 5,47 1,3 2,5 4,7 1,1 1,1 2,2zm-145 -123l-16 -16c-4,-3 -14,-10 -19,-11 -1,1 -1,1 -1,2 -2,4 -3,9 -3,14l0 0c0,7 0,15 0,22 1,7 2,15 3,23 3,25 15,57 27,80 1,2 2,4 3,6 5,10 41,56 54,41 11,-13 -11,-84 -16,-98 -9,-26 -15,-41 -32,-63zm77 -84c0,0 24,-2 35,-18 15,-24 25,-47 33,-74 3,-11 3,-28 3,-39 0,-8 -1,-29 -4,-38 -1,-1 -1,-1 -2,-1 -3,1 -10,5 -12,7 -6,4 -10,10 -15,15 -60,75 -33,74 -38,148zm200 -191c0,0 0,1 -1,1 -15,16 -22,64 -22,86 0,17 0,36 3,53 2,8 3,15 5,22 12,8 23,14 36,19 2,-1 6,-3 8,-5 3,-13 4,-27 5,-40 2,-14 2,-28 2,-41 0,-18 -3,-32 -8,-48 -2,-5 -4,-10 -6,-14 -3,-8 -9,-17 -14,-24 -2,-3 -5,-6 -8,-9zm119 530c17,-22 34,-53 44,-77 7,-19 14,-40 14,-60 0,-3 -1,-10 -3,-14 0,1 0,1 0,1 -1,0 -2,1 -3,2 -15,8 -25,13 -38,23 -13,10 -26,36 -35,50 -72,140 -10,120 21,75zm46 -244c-18,-14 -123,12 -143,22 -3,1 -5,3 -7,4 -8,4 -17,10 -24,15 -3,2 -6,5 -9,8 -4,4 -12,11 -13,16 -1,3 -1,5 2,6 6,4 17,5 25,5 33,0 70,-9 101,-21 20,-9 73,-42 68,-55zm-213 163c-23,0 -72,11 -110,28 -2,2 -30,50 -24,62 2,3 27,23 44,23 2,0 4,-1 9,-1l59 -10c29,-5 43,-10 67,-25 11,-8 45,-33 45,-48 0,-13 -12,-19 -21,-23 -4,-2 -11,-4 -16,-5 -11,-2 -41,-1 -53,-1zm-102 -184c-7,24 -13,52 -13,77 0,18 0,39 7,55 2,5 5,10 8,13 5,4 8,7 16,7 16,0 22,-8 30,-17 4,-3 10,-14 13,-19 6,-9 12,-22 16,-32 9,-23 17,-49 22,-75 10,-61 -7,-60 -28,-100 -4,-8 -10,1 -21,5 -33,13 -34,27 -50,86zm-76 67c-10,-31 -17,-46 -36,-70l-18 -18c-14,-11 -38,-28 -51,-3 -3,6 -5,14 -5,23l0 0c0,24 0,23 3,47 4,27 16,62 29,87 1,3 2,3 3,6 4,7 12,21 20,32 86,54 73,-6 73,-21 -1,-29 -11,-61 -18,-83zm78 -149c17,-26 27,-49 36,-79 6,-23 3,-84 -6,-95 -2,-3 -11,-8 -16,-8 -9,0 -20,7 -25,11 -7,6 -13,12 -18,19 -53,64 -55,182 -33,180 16,-2 35,-8 49,-9l6 -9c3,-3 5,-6 7,-10zm196 1c5,-22 8,-65 8,-89 0,-21 -4,-37 -10,-55 -1,-5 -4,-10 -6,-15 -3,-9 -10,-19 -15,-27 -4,-5 -8,-10 -13,-14 -9,-8 -19,-5 -27,3 -20,21 -28,71 -28,100 0,19 0,39 4,57 2,11 4,21 7,31 1,1 2,2 2,2 17,11 27,16 47,24 7,3 21,-6 30,-14 0,-2 1,-3 1,-3zm113 180c-17,10 -24,12 -40,25 -16,12 -30,38 -40,56 -11,18 -26,53 -31,75 0,0 0,1 0,1 -9,78 55,69 67,40 1,-1 2,-1 3,-2 24,-24 49,-68 61,-98 8,-20 16,-44 16,-68 0,-14 -5,-29 -15,-33 -6,-4 -12,-1 -17,2 -2,1 -2,1 -4,2zm-57 -5c19,-7 43,-20 59,-32 26,-37 47,-66 -10,-65 -51,-9 -94,5 -140,28 -3,2 -4,3 -7,4 -8,4 -20,12 -27,17 -4,3 -8,6 -11,10 -7,7 -15,14 -18,24 -5,13 2,24 11,29 9,5 21,8 35,8 36,0 76,-10 108,-23z"/>
   <path class="fil1" d="M720 191c-292,0 -529,237 -529,529 0,292 237,528 529,528 292,0 528,-236 528,-528 0,-292 -236,-529 -528,-529zm0 23c279,0 505,226 505,506 0,279 -226,505 -505,505 -280,0 -506,-226 -506,-505 0,-280 226,-506 506,-506z"/>
   <path class="fil0" d="M971 662c-20,1 -41,-2 -73,-41l-19 -24c-15,-20 -27,-48 -37,-71 -2,-5 -5,-13 -3,-19 3,-5 7,-7 13,-6 7,1 25,16 31,21l42 38c15,14 62,60 50,77 -3,6 -5,12 -5,19l1 6zm19 -7c0,-8 17,-47 -52,-110l-42 -38c-9,-7 -30,-26 -43,-26 -14,-1 -25,5 -32,18 -5,11 -3,23 3,35 10,24 24,55 40,75l18 25c34,40 111,76 108,21z"/>
  </g>
  <rect class="fil2" width="1439" height="1439"/>
 </g>
</svg>
