<?xml version="1.0" encoding="UTF-8"?>
<!DOCTYPE svg PUBLIC "-//W3C//DTD SVG 1.0//EN" "http://www.w3.org/TR/2001/REC-SVG-20010904/DTD/svg10.dtd">
<!-- Creator: CorelDRAW X7 -->
<svg xmlns="http://www.w3.org/2000/svg" xml:space="preserve" width="3.33333in" height="3.33333in" version="1.0" style="shape-rendering:geometricPrecision; text-rendering:geometricPrecision; image-rendering:optimizeQuality; fill-rule:evenodd; clip-rule:evenodd"
viewBox="0 0 1439 1439"
 xmlns:xlink="http://www.w3.org/1999/xlink">
 <defs>
  <style type="text/css">
   <![CDATA[
    .fil0 {fill:none}
    .fil1 {fill:#99CC33}
    .fil2 {fill:#99CC33}
   ]]>
  </style>
 </defs>
 <g id="Layer_x0020_1">
  <metadata id="CorelCorpID_0Corel-Layer"/>
  <rect class="fil0" width="1439" height="1439"/>
  <g id="_1901916782640">
   <path class="fil1" d="M720 191c-292,0 -529,237 -529,529 0,292 237,528 529,528 292,0 528,-236 528,-528 0,-292 -236,-529 -528,-529zm0 23c279,0 505,226 505,506 0,279 -226,505 -505,505 -280,0 -506,-226 -506,-505 0,-280 226,-506 506,-506z"/>
   <path class="fil1" d="M953 438c-19,-16 -41,-30 -63,-42 -87,-45 -186,-54 -279,-25 -93,29 -170,92 -215,179 -38,72 -51,155 -36,234 -9,6 -17,13 -21,22 -7,13 -9,28 -4,42 4,14 14,25 26,32 13,6 28,8 42,3 14,-4 25,-13 32,-26 6,-13 8,-28 3,-41 -4,-14 -13,-26 -26,-32 -8,-4 -16,-6 -24,-7 -13,-73 -1,-148 33,-214 87,-165 291,-228 455,-142 21,11 41,24 59,39 6,5 15,5 20,-1 5,-7 4,-16 -2,-21zm-574 369c7,-2 14,-1 20,2 5,3 10,8 12,15 2,7 2,14 -2,20 -3,6 -8,10 -15,12 -13,4 -28,-3 -32,-17 -2,-6 -1,-13 2,-19 3,-6 8,-11 15,-13z"/>
   <path class="fil1" d="M856 381l0 -1c-7,-2 -15,1 -18,8 -3,8 0,16 8,19l0 0c1,1 3,1 5,1 6,0 11,-3 13,-9 3,-7 0,-16 -8,-18z"/>
   <path class="fil1" d="M1079 655c9,-5 17,-13 22,-22 6,-13 8,-28 3,-42 -4,-13 -13,-25 -26,-32 -13,-6 -28,-8 -42,-3 -13,4 -25,13 -31,26 -7,13 -9,28 -4,42 4,13 13,25 26,32 8,4 16,6 25,6 12,73 0,148 -34,214 -15,28 -32,52 -52,74l30 9c18,-21 34,-44 47,-69 38,-72 51,-156 36,-235zm-19 -23c-6,2 -13,1 -19,-2 -6,-3 -11,-8 -13,-15 -4,-13 3,-28 17,-32 6,-2 13,-1 20,2 6,3 10,8 12,15 2,6 1,13 -2,19 -3,7 -8,11 -15,13z"/>
   <path class="fil2" d="M476 998l487 0c7,0 12,5 12,12l0 0c0,7 -5,12 -12,12l-487 0c-7,0 -12,-5 -12,-12l0 0c0,-7 5,-12 12,-12z"/>
   <path class="fil2" d="M516 1051l162 0c6,0 12,5 12,12l0 0c0,7 -6,12 -12,12l-162 0c-7,0 -12,-5 -12,-12l0 0c0,-7 5,-12 12,-12z"/>
   <path class="fil2" d="M747 1051l255 0c7,0 12,5 12,12l0 0c0,7 -5,12 -12,12l-255 0c-7,0 -12,-5 -12,-12l0 0c0,-7 5,-12 12,-12z"/>
   <path class="fil2" d="M573 1097l255 0c6,0 12,5 12,12l0 0c0,7 -6,12 -12,12l-255 0c-7,0 -12,-5 -12,-12l0 0c0,-7 5,-12 12,-12z"/>
   <path class="fil1" d="M671 691c-1,-3 -3,-5 -5,-6 -1,0 -5,-2 -12,-3 29,-30 19,-65 17,-72 -1,-2 -3,-4 -5,-5 -1,-1 -23,-8 -47,0 2,-5 2,-12 2,-18 0,-43 -32,-62 -39,-66 -2,-1 -5,-1 -7,0 -2,1 -40,19 -40,66 0,6 1,13 2,18 -24,-8 -45,-1 -46,0 -3,1 -5,3 -6,5 -2,7 -11,42 17,72 -7,1 -11,3 -11,3 -3,1 -5,3 -6,6 -2,7 -12,43 19,74 17,17 37,21 52,21 5,0 10,0 13,-1l0 196 18 0 0 -196c3,1 8,1 14,1 14,0 34,-4 52,-21 30,-31 20,-67 18,-74zm-102 67c0,4 0,7 -1,10 -9,2 -32,4 -52,-16 -20,-19 -18,-42 -15,-52 5,-1 17,-3 29,2 1,0 2,0 3,0 6,3 13,7 20,14 12,12 16,26 16,36l0 6zm0 -80c0,4 0,7 -1,9 -6,2 -17,3 -29,-1 -1,0 -2,-1 -4,-1 -6,-3 -13,-7 -19,-13 -20,-20 -18,-42 -15,-52 9,-2 32,-5 52,15 0,0 0,0 0,1 1,0 2,1 2,2 11,12 14,24 14,34l0 6zm9 -43c-2,-2 -6,-5 -10,-9 -1,-1 -1,-1 -2,-2 -7,-8 -14,-20 -14,-37 0,-28 18,-43 26,-48 9,5 26,20 26,48 0,16 -6,28 -13,36 -1,1 -2,3 -4,4 -3,4 -6,6 -9,8zm9 40c0,-10 2,-24 13,-36 1,-1 3,-3 4,-4 20,-20 43,-17 52,-15 2,10 4,32 -16,52 -6,6 -13,10 -19,13 -1,0 -3,1 -4,1 -12,4 -23,3 -29,1 -1,-2 -1,-7 -1,-12 0,0 0,0 0,0zm53 77c-20,20 -43,18 -52,16 -2,-9 -4,-33 16,-52 6,-7 13,-11 19,-13 1,-1 2,-1 4,-2 12,-4 23,-2 29,-1 2,10 4,33 -16,52z"/>
   <path class="fil1" d="M927 768c0,-3 -2,-5 -5,-6 -1,0 -5,-1 -11,-2 28,-30 19,-65 16,-72 0,-3 -2,-5 -5,-6 -1,0 -22,-8 -46,0 1,-5 2,-11 2,-18 0,-43 -33,-62 -39,-65 -3,-2 -6,-2 -8,-1 -2,1 -40,19 -40,66 0,7 1,13 2,18 -24,-8 -45,0 -46,0 -3,1 -5,3 -6,6 -2,7 -11,42 17,72 -6,1 -11,2 -11,2 -3,1 -5,3 -6,6 -2,7 -12,43 19,74 18,18 37,22 52,22 5,0 10,-1 14,-2l0 119 17 0 0 -119c4,1 8,2 14,2 15,0 34,-4 52,-22 30,-31 21,-67 18,-74zm-101 68c-1,3 -1,7 -2,9 -9,2 -32,5 -52,-15 -19,-20 -17,-43 -15,-53 6,-1 17,-2 29,2 1,0 2,0 3,1 7,2 13,6 20,13 12,12 16,26 17,37l0 6zm0 -81c-1,4 -1,7 -2,10 -5,1 -16,2 -29,-1 -1,-1 -2,-1 -3,-2 -7,-2 -14,-6 -20,-13 -19,-19 -17,-42 -15,-52 9,-2 32,-4 52,16 0,0 0,0 0,0 1,1 2,2 3,2 10,12 13,24 14,34l0 6zm8 -43c-2,-2 -6,-5 -10,-9 -1,0 -1,-1 -1,-1 -8,-8 -15,-21 -15,-38 0,-28 18,-43 26,-48 9,6 26,20 26,48 0,17 -6,28 -12,36 -2,2 -3,3 -4,5 -4,3 -7,5 -10,7zm9 40c0,-10 3,-23 13,-36 2,-1 3,-2 4,-4 20,-19 43,-17 52,-15 2,10 4,33 -15,52 -7,7 -13,11 -20,13 -1,1 -2,1 -4,2 -12,3 -23,2 -29,1 0,-3 -1,-7 -1,-12 0,0 0,-1 0,-1zm54 78c-20,20 -43,17 -53,15 -2,-9 -4,-32 16,-52 6,-6 13,-11 19,-13 1,0 3,-1 4,-1 12,-4 23,-3 29,-2 2,10 4,33 -15,53z"/>
   <path class="fil2" d="M719 981l-18 0 0 -240 18 0 0 240z"/>
   <path class="fil2" d="M658 981l-17 0 0 -138 17 0 0 138z"/>
   <path class="fil2" d="M921 981l-18 0 0 -100 18 0 0 100z"/>
  </g>
 </g>
</svg>
