<?xml version="1.0" encoding="UTF-8"?>
<!DOCTYPE svg PUBLIC "-//W3C//DTD SVG 1.0//EN" "http://www.w3.org/TR/2001/REC-SVG-20010904/DTD/svg10.dtd">
<!-- Creator: CorelDRAW X7 -->
<svg xmlns="http://www.w3.org/2000/svg" xml:space="preserve" width="3.33333in" height="3.33333in" version="1.0" style="shape-rendering:geometricPrecision; text-rendering:geometricPrecision; image-rendering:optimizeQuality; fill-rule:evenodd; clip-rule:evenodd"
viewBox="0 0 1439 1439"
 xmlns:xlink="http://www.w3.org/1999/xlink">
 <defs>
  <style type="text/css">
   <![CDATA[
    .fil0 {fill:none}
    .fil1 {fill:#99CC33}
   ]]>
  </style>
 </defs>
 <g id="Layer_x0020_1">
  <metadata id="CorelCorpID_0Corel-Layer"/>
  <rect class="fil0" width="1439" height="1439"/>
  <g id="_1867409307648">
   <path class="fil1" d="M720 191c-292,0 -529,237 -529,529 0,292 237,528 529,528 292,0 528,-236 528,-528 0,-292 -236,-529 -528,-529zm0 23c279,0 505,226 505,506 0,279 -226,505 -505,505 -280,0 -506,-226 -506,-505 0,-280 226,-506 506,-506z"/>
   <path class="fil1" d="M873 729c-1,-5 -4,-8 -9,-10 0,0 -7,-3 -18,-4 46,-50 31,-108 27,-119 -1,-5 -4,-8 -9,-10 -2,0 -36,-13 -76,1 2,-9 3,-19 3,-30 0,-72 -54,-103 -64,-109 -4,-2 -9,-2 -13,0 -3,1 -66,31 -66,109 0,11 1,21 4,30 -40,-14 -75,-1 -77,-1 -5,2 -8,5 -9,10 -4,11 -19,69 28,119 -11,1 -18,4 -19,4 -5,2 -8,5 -9,10 -4,11 -20,71 31,122 29,29 61,36 85,36 9,0 17,-1 23,-2l0 93c0,8 7,14 14,14 8,0 15,-6 15,-14l0 -93c6,1 14,2 23,2 24,0 57,-7 86,-36 50,-51 34,-111 30,-122zm-168 111c0,7 -1,12 -2,16 -15,3 -53,7 -86,-25 -33,-33 -29,-70 -26,-87 10,-2 29,-4 49,2 2,1 3,1 4,2 11,4 23,11 34,22 20,20 26,43 27,61l0 9zm0 -133c0,7 -1,12 -2,16 -9,2 -28,5 -48,-2 -2,-1 -4,-1 -6,-2 -11,-4 -22,-11 -32,-21 -33,-33 -29,-70 -26,-87 16,-3 54,-7 87,26 0,0 0,0 0,0 1,2 3,3 4,4 17,20 22,40 23,57l0 9zm15 -71c-5,-3 -11,-8 -18,-15 0,0 -1,-1 -2,-2 -12,-13 -23,-34 -23,-62 0,-47 29,-71 43,-80 14,9 43,34 43,80 0,27 -11,46 -22,60 -2,2 -4,4 -6,7 -6,5 -11,9 -15,12zm14 67c0,-17 4,-39 22,-60 2,-2 4,-4 6,-7 33,-32 71,-28 86,-25 3,17 7,54 -26,87 -10,10 -21,17 -32,21 -2,1 -4,1 -6,2 -20,7 -39,4 -48,2 -1,-5 -2,-12 -2,-20 0,0 0,0 0,0zm88 128c-33,32 -71,28 -86,25 -3,-15 -7,-54 26,-86 10,-11 21,-18 32,-22 2,0 4,-1 6,-2 20,-6 38,-4 48,-2 3,16 7,54 -26,87z"/>
   <path class="fil1" d="M1061 576c57,137 29,300 -84,409 -146,142 -381,139 -523,-8 -142,-146 -139,-381 8,-523 133,-129 339,-138 482,-28 22,-15 52,-13 71,7 21,22 20,57 -1,78 -22,21 -57,20 -78,-1 -17,-18 -20,-43 -10,-64 -132,-100 -322,-92 -445,28 -136,132 -139,349 -7,484 132,136 349,139 484,8 105,-102 131,-254 77,-380l0 0c-2,-5 0,-11 4,-15 5,-5 14,-5 19,0 1,2 2,3 3,5zm-22 -42c6,5 5,14 0,19 -5,5 -14,5 -19,0 -5,-6 -5,-14 0,-19 5,-6 14,-6 19,0zm-43 -83c11,12 10,30 -1,41 -11,11 -29,10 -40,-1 -11,-11 -11,-29 0,-40 12,-11 30,-11 41,0z"/>
  </g>
 </g>
</svg>
