<?xml version="1.0" encoding="UTF-8"?>
<!DOCTYPE svg PUBLIC "-//W3C//DTD SVG 1.0//EN" "http://www.w3.org/TR/2001/REC-SVG-20010904/DTD/svg10.dtd">
<!-- Creator: CorelDRAW X7 -->
<svg xmlns="http://www.w3.org/2000/svg" xml:space="preserve" width="3.33333in" height="3.33333in" version="1.0" style="shape-rendering:geometricPrecision; text-rendering:geometricPrecision; image-rendering:optimizeQuality; fill-rule:evenodd; clip-rule:evenodd"
viewBox="0 0 1439 1439"
 xmlns:xlink="http://www.w3.org/1999/xlink">
 <defs>
  <style type="text/css">
   <![CDATA[
    .fil0 {fill:none}
    .fil1 {fill:#99CC33}
   ]]>
  </style>
 </defs>
 <g id="Layer_x0020_1">
  <metadata id="CorelCorpID_0Corel-Layer"/>
  <rect class="fil0" width="1439" height="1439"/>
  <g id="_1867405677008">
   <g>
    <path class="fil1" d="M762 846l-46 27 -23 -13 6 -11 17 9 40 -23 0 -46 -40 -24 -40 24 0 46 20 11 -7 12 -19 -12 -47 27 -26 -15 6 -12 20 12 40 -23 0 -46 -40 -24 -40 24 0 46 16 9 -6 11 -22 -13 0 -61 46 -27 0 -46 -46 -27 0 -29 12 0 0 22 40 23 40 -23 0 -47 -40 -23 -40 23 0 21 -12 0 0 -28 52 -31 53 31 0 54 20 11 -7 11 -19 -11 -40 23 0 46 40 24 40 -24 0 -46 -17 -10 7 -11 22 14 0 53 40 24 47 -27 25 14 -7 11 -18 -11 -40 24 0 46 40 23 40 -23 0 -46 -18 -11 6 -11 25 14 0 61 -53 31 -47 -27zm-23 -217l17 4c6,-13 19,-21 34,-21 9,0 18,3 25,9l4 -4c-3,-4 -5,-9 -5,-15 0,-14 12,-26 27,-26 14,0 26,12 26,26 0,15 -12,27 -26,27 -5,0 -9,-1 -13,-3l-5 5c3,6 5,12 5,18 0,21 -17,38 -38,38 -4,0 -8,0 -11,-1l-5 6c5,5 7,12 7,19 0,15 -11,27 -26,27 -15,0 -26,-12 -26,-27 0,-14 11,-26 26,-26 3,0 5,0 7,1l5 -6c-9,-8 -15,-19 -15,-31 0,-1 0,-2 0,-4l-16 -4c-5,9 -14,14 -23,14 -15,0 -27,-12 -27,-26 0,-15 12,-27 27,-27 14,0 26,12 26,27 0,0 0,0 0,0zm102 -40c-8,0 -14,6 -14,13 0,8 6,14 14,14 7,0 13,-6 13,-14 0,-7 -6,-13 -13,-13zm-72 122c0,-7 -6,-13 -14,-13 -8,0 -14,6 -14,13 0,8 6,14 14,14 8,0 14,-6 14,-14zm21 -87c-14,0 -25,12 -25,25 0,14 11,25 25,25 14,0 25,-11 25,-25 0,-13 -11,-25 -25,-25zm-77 -9c-8,0 -14,6 -14,14 0,7 6,13 14,13 7,0 13,-6 13,-13 0,-8 -6,-14 -13,-14zm3 223l28 -16 6 11 -34 20 -19 -11 6 -11 13 7zm-34 -5l6 -11 11 7 -6 11 -11 -7zm150 -34l-13 -8 6 -11 19 11 0 40 -12 0 0 -32zm-28 -17l6 -11 11 7 -6 11 -11 -7zm-215 51l7 -11 18 11 -7 11 -18 -11zm22 13l6 -11 11 6 -6 11 -11 -6zm-23 -189l13 0 0 13 -13 0 0 -13zm0 -26l13 0 0 21 -13 0 0 -21zm77 71l6 -11 11 6 -6 11 -11 -6zm28 16l-13 -8 6 -11 19 12 0 39 -12 0 0 -32z"/>
    <path class="fil1" d="M442 408l552 0c17,0 30,14 30,30l0 70c0,13 -7,23 -19,28l0 429c25,4 43,25 43,51l0 0c0,28 -23,51 -51,51l-555 0c-28,0 -51,-23 -51,-51l0 0c0,-28 23,-51 51,-52l0 -426c-17,0 -30,-14 -30,-30l0 -70c0,-16 14,-30 30,-30zm146 510l261 0c7,0 12,5 12,12l0 0c0,6 -5,12 -12,12l-261 0c-6,0 -12,-6 -12,-12l0 0c0,-7 6,-12 12,-12zm0 34l261 0c7,0 12,5 12,12l0 0c0,6 -5,11 -12,11l-261 0c-6,0 -12,-5 -12,-11l0 0c0,-7 6,-12 12,-12zm69 34l123 0c6,0 12,5 12,12l0 0c0,6 -6,11 -12,11l-123 0c-6,0 -12,-5 -12,-11l0 0c0,-7 6,-12 12,-12zm192 -506l152 0 0 -42c0,-3 -3,-6 -7,-6l-552 0c-3,0 -6,3 -6,6l0 8 165 0c7,0 12,6 12,12l0 0c0,6 -5,12 -12,12l-165 0 0 38c0,4 3,6 6,6l552 0c4,0 7,-2 7,-6l0 -4 -152 0c-6,0 -11,-6 -11,-12l0 0c0,-7 5,-12 11,-12zm133 58l-516 0 0 450 -24 0c-15,0 -27,13 -27,28 0,15 12,27 27,27l555 0c15,0 27,-12 27,-27 0,-14 -9,-25 -23,-27l-19 -4 0 -447z"/>
    <path class="fil1" d="M864 338c48,0 90,29 109,70l-27 0c-17,-28 -48,-46 -82,-46 -8,0 -15,1 -23,3l-20 4 -7 -19c-14,-38 -51,-64 -91,-64 -36,0 -68,19 -85,50l-9 16 -18 -4c-8,-3 -17,-4 -25,-4 -42,0 -78,27 -91,64l-25 0c14,-50 61,-87 116,-87 11,0 21,1 31,4 21,-37 60,-63 106,-63 52,0 96,33 113,79 9,-2 18,-3 28,-3z"/>
   </g>
   <path class="fil1" d="M720 191c-292,0 -529,237 -529,529 0,292 237,528 529,528 292,0 528,-236 528,-528 0,-292 -236,-529 -528,-529zm0 23c279,0 505,226 505,506 0,279 -226,505 -505,505 -280,0 -506,-226 -506,-505 0,-280 226,-506 506,-506z"/>
  </g>
 </g>
</svg>
