<?xml version="1.0" encoding="UTF-8"?>
<!DOCTYPE svg PUBLIC "-//W3C//DTD SVG 1.0//EN" "http://www.w3.org/TR/2001/REC-SVG-20010904/DTD/svg10.dtd">
<!-- Creator: CorelDRAW X7 -->
<svg xmlns="http://www.w3.org/2000/svg" xml:space="preserve" width="3.33333in" height="3.33333in" version="1.0" style="shape-rendering:geometricPrecision; text-rendering:geometricPrecision; image-rendering:optimizeQuality; fill-rule:evenodd; clip-rule:evenodd"
viewBox="0 0 1439 1439"
 xmlns:xlink="http://www.w3.org/1999/xlink">
 <defs>
  <style type="text/css">
   <![CDATA[
    .fil0 {fill:none}
    .fil1 {fill:#99CC33}
   ]]>
  </style>
 </defs>
 <g id="Layer_x0020_1">
  <metadata id="CorelCorpID_0Corel-Layer"/>
  <rect class="fil0" width="1439" height="1439"/>
  <g id="_1901920624672">
   <g>
    <path class="fil1" d="M442 408l552 0c17,0 30,14 30,30l0 70c0,13 -7,23 -19,28l0 429c25,4 43,25 43,51l0 0c0,28 -23,51 -51,51l-555 0c-28,0 -51,-23 -51,-51l0 0c0,-28 23,-51 51,-52l0 -426c-17,0 -30,-14 -30,-30l0 -70c0,-16 14,-30 30,-30zm146 510l261 0c7,0 12,5 12,12l0 0c0,6 -5,12 -12,12l-261 0c-6,0 -12,-6 -12,-12l0 0c0,-7 6,-12 12,-12zm0 34l261 0c7,0 12,5 12,12l0 0c0,6 -5,11 -12,11l-261 0c-6,0 -12,-5 -12,-11l0 0c0,-7 6,-12 12,-12zm69 34l123 0c6,0 12,5 12,12l0 0c0,6 -6,11 -12,11l-123 0c-6,0 -12,-5 -12,-11l0 0c0,-7 6,-12 12,-12zm192 -506l152 0 0 -42c0,-3 -3,-6 -7,-6l-552 0c-3,0 -6,3 -6,6l0 8 165 0c7,0 12,6 12,12l0 0c0,6 -5,12 -12,12l-165 0 0 38c0,4 3,6 6,6l552 0c4,0 7,-2 7,-6l0 -4 -152 0c-6,0 -11,-6 -11,-12l0 0c0,-7 5,-12 11,-12zm133 58l-516 0 0 450 -24 0c-15,0 -27,13 -27,28 0,15 12,27 27,27l555 0c15,0 27,-12 27,-27 0,-14 -9,-25 -23,-27l-19 -4 0 -447z"/>
    <path class="fil1" d="M862 338c48,0 90,29 109,70l-27 0c-17,-28 -47,-46 -82,-46 -8,0 -15,1 -23,3l-20 4 -7 -19c-14,-38 -50,-64 -91,-64 -36,0 -68,19 -85,50l-9 16 -18 -4c-8,-3 -17,-4 -25,-4 -42,0 -77,27 -91,64l-25 0c14,-50 61,-87 116,-87 11,0 21,1 31,4 21,-37 60,-63 106,-63 52,0 96,33 113,79 9,-2 18,-3 28,-3z"/>
    <path class="fil1" d="M885 575l0 -11 -20 0 0 11c0,24 -18,44 -41,48l-209 0c-23,-4 -41,-24 -41,-48l0 -11 -19 0 0 11c0,22 10,41 26,54 -16,8 -26,24 -26,42l0 30 29 0c12,0 24,-4 32,-12l7 141c2,36 32,65 68,65l57 0c36,0 66,-29 68,-65l7 -141c9,8 20,12 32,12l30 0 0 -30c0,-18 -11,-34 -27,-42 16,-13 27,-32 27,-54zm-272 78c0,16 -13,29 -29,29l-10 0 0 -11c0,-16 13,-29 29,-29l10 0 0 11zm184 176c-2,26 -23,46 -49,46l-57 0c-26,0 -47,-20 -48,-46l-1 -17c20,-21 48,-34 78,-34 29,0 57,13 77,34l0 17zm2 -42c-23,-18 -50,-28 -79,-28 -29,0 -57,10 -80,28l-7 -145 173 0 -7 145zm66 -116l0 11 -10 0c-16,0 -29,-13 -29,-29l0 -11 10 0c16,0 29,13 29,29z"/>
    <path class="fil1" d="M700 843c0,-7 -6,-13 -13,-13 -7,0 -13,6 -13,13 0,7 6,13 13,13 7,0 13,-6 13,-13z"/>
    <path class="fil1" d="M765 843c0,-7 -6,-13 -13,-13 -7,0 -13,6 -13,13 0,7 6,13 13,13 7,0 13,-6 13,-13z"/>
    <path class="fil1" d="M681 710c0,-7 -6,-13 -13,-13 -7,0 -13,6 -13,13 0,7 6,13 13,13 7,0 13,-6 13,-13z"/>
    <path class="fil1" d="M784 710c0,-7 -6,-13 -13,-13 -7,0 -13,6 -13,13 0,7 6,13 13,13 7,0 13,-6 13,-13z"/>
   </g>
   <path class="fil1" d="M720 191c-292,0 -529,237 -529,529 0,292 237,528 529,528 292,0 528,-236 528,-528 0,-292 -236,-529 -528,-529zm0 23c279,0 505,226 505,506 0,279 -226,505 -505,505 -280,0 -506,-226 -506,-505 0,-280 226,-506 506,-506z"/>
  </g>
 </g>
</svg>
