<?xml version="1.0" encoding="UTF-8"?>
<!DOCTYPE svg PUBLIC "-//W3C//DTD SVG 1.0//EN" "http://www.w3.org/TR/2001/REC-SVG-20010904/DTD/svg10.dtd">
<!-- Creator: CorelDRAW X7 -->
<svg xmlns="http://www.w3.org/2000/svg" xml:space="preserve" width="3.33333in" height="3.33333in" version="1.0" style="shape-rendering:geometricPrecision; text-rendering:geometricPrecision; image-rendering:optimizeQuality; fill-rule:evenodd; clip-rule:evenodd"
viewBox="0 0 1439 1439"
 xmlns:xlink="http://www.w3.org/1999/xlink">
 <defs>
  <style type="text/css">
   <![CDATA[
    .fil0 {fill:none}
    .fil1 {fill:#99CC33}
   ]]>
  </style>
 </defs>
 <g id="Layer_x0020_1">
  <metadata id="CorelCorpID_0Corel-Layer"/>
  <rect class="fil0" width="1439" height="1439"/>
  <g id="_1867405676880">
   <g>
    <path class="fil1" d="M442 408l552 0c17,0 30,14 30,30l0 70c0,13 -7,23 -19,28l0 429c25,4 43,25 43,51l0 0c0,28 -23,51 -51,51l-555 0c-28,0 -51,-23 -51,-51l0 0c0,-28 23,-51 51,-52l0 -426c-17,0 -30,-14 -30,-30l0 -70c0,-16 14,-30 30,-30zm146 510l261 0c7,0 12,5 12,12l0 0c0,6 -5,12 -12,12l-261 0c-6,0 -12,-6 -12,-12l0 0c0,-7 6,-12 12,-12zm0 34l261 0c7,0 12,5 12,12l0 0c0,6 -5,11 -12,11l-261 0c-6,0 -12,-5 -12,-11l0 0c0,-7 6,-12 12,-12zm69 34l123 0c6,0 12,5 12,12l0 0c0,6 -6,11 -12,11l-123 0c-6,0 -12,-5 -12,-11l0 0c0,-7 6,-12 12,-12zm192 -506l152 0 0 -42c0,-3 -3,-6 -7,-6l-552 0c-3,0 -6,3 -6,6l0 8 165 0c7,0 12,6 12,12l0 0c0,6 -5,12 -12,12l-165 0 0 38c0,4 3,6 6,6l552 0c4,0 7,-2 7,-6l0 -4 -152 0c-6,0 -11,-6 -11,-12l0 0c0,-7 5,-12 11,-12zm133 58l-516 0 0 450 -24 0c-15,0 -27,13 -27,28 0,15 12,27 27,27l555 0c15,0 27,-12 27,-27 0,-14 -9,-25 -23,-27l-19 -4 0 -447z"/>
    <path class="fil1" d="M864 338c48,0 90,29 109,70l-27 0c-17,-28 -48,-46 -82,-46 -8,0 -15,1 -23,3l-20 4 -7 -19c-14,-38 -51,-64 -91,-64 -36,0 -68,19 -85,50l-9 16 -18 -4c-8,-3 -17,-4 -25,-4 -42,0 -78,27 -91,64l-25 0c14,-50 61,-87 116,-87 11,0 21,1 31,4 21,-37 60,-63 106,-63 52,0 96,33 113,79 9,-2 18,-3 28,-3z"/>
   </g>
   <path class="fil1" d="M720 191c-292,0 -529,237 -529,529 0,292 237,528 529,528 292,0 528,-236 528,-528 0,-292 -236,-529 -528,-529zm0 23c279,0 505,226 505,506 0,279 -226,505 -505,505 -280,0 -506,-226 -506,-505 0,-280 226,-506 506,-506z"/>
   <path class="fil1" d="M887 742l0 0c4,23 0,47 -12,67 -13,23 -35,40 -62,47 -8,3 -17,4 -26,4 -16,0 -32,-4 -46,-12l3 5c1,4 0,8 -3,9 -1,1 -2,1 -3,1 -2,0 -5,-1 -6,-3l-8 -14c-17,9 -36,13 -54,13 -41,0 -81,-21 -103,-60 -14,-23 -19,-51 -15,-78l0 -1 20 -140c1,-2 2,-4 4,-5 1,-1 3,-1 5,-1l52 21c3,2 5,6 4,9 -2,3 -6,5 -9,4l-44 -18 -19 131c0,0 0,1 0,1 -4,24 1,49 13,71 28,48 90,66 139,42l-11 -20 -89 -24c-4,-1 -6,-4 -5,-8 1,-3 5,-5 8,-4l77 20 -24 -42 -63 -17c-3,-1 -5,-4 -4,-8 1,-3 4,-6 8,-5l49 14 -19 -34 -37 -10c-4,-1 -6,-4 -5,-8 1,-3 4,-5 8,-5l25 7 -19 -32c-1,-3 0,-7 3,-9 3,-1 7,0 9,3l18 31 7 -24c1,-4 4,-6 8,-5 3,1 5,5 4,8l-10 38 20 33 13 -49c1,-4 4,-6 8,-5 4,1 6,5 5,8l-17 62 24 43 21 -77c1,-4 5,-6 8,-5 4,1 6,5 5,8l-24 90 11 19c22,-14 37,-36 44,-61 7,-28 4,-56 -11,-81 -12,-21 -31,-37 -54,-46l0 0 -30 -12c-3,-1 -5,-5 -3,-9 1,-3 5,-5 8,-3l30 12 0 0c26,10 47,28 61,52 11,18 16,39 16,60l8 -14 -8 -31c-1,-4 1,-8 5,-9 3,-1 7,2 8,5l5 18 14 -24c2,-3 6,-4 9,-2 3,1 4,5 2,9l-14 24 18 -5c4,-1 8,1 9,5 0,3 -2,7 -5,8l-31 8 -15 26 39 -11c4,-1 7,1 8,5 1,3 -1,7 -4,8l-53 14c-4,12 -9,22 -16,32l60 -16c3,-1 7,1 8,5 1,3 -1,7 -5,8l-77 21c-4,3 -8,7 -12,10l0 1c21,11 44,15 67,8 23,-6 42,-20 54,-41 10,-17 14,-38 10,-58 0,-1 0,-1 0,-1l-16 -109 -70 28c-3,2 -7,0 -8,-3 -2,-4 0,-8 3,-9l78 -31c2,-1 4,-1 6,0 2,1 3,3 3,5l17 118zm-43 -77l0 0c2,3 1,7 -2,9 -1,1 -2,1 -4,1 -2,0 -4,-1 -5,-2l0 -1c-2,-3 -2,-7 1,-9 3,-2 7,-1 10,2zm-189 -60c2,0 3,1 5,2 1,1 2,3 2,4 0,2 -1,4 -2,5 -2,1 -3,2 -5,2 -2,0 -3,-1 -5,-2 -1,-1 -2,-3 -2,-5 0,-1 1,-3 2,-4 2,-1 3,-2 5,-2z"/>
  </g>
 </g>
</svg>
