<?xml version="1.0" encoding="UTF-8"?>
<!DOCTYPE svg PUBLIC "-//W3C//DTD SVG 1.0//EN" "http://www.w3.org/TR/2001/REC-SVG-20010904/DTD/svg10.dtd">
<!-- Creator: CorelDRAW X7 -->
<svg xmlns="http://www.w3.org/2000/svg" xml:space="preserve" width="3.33333in" height="3.33333in" version="1.0" style="shape-rendering:geometricPrecision; text-rendering:geometricPrecision; image-rendering:optimizeQuality; fill-rule:evenodd; clip-rule:evenodd"
viewBox="0 0 1439 1439"
 xmlns:xlink="http://www.w3.org/1999/xlink">
 <defs>
  <style type="text/css">
   <![CDATA[
    .fil0 {fill:none}
    .fil1 {fill:#99CC33}
    .fil2 {fill:#F9F9FA}
   ]]>
  </style>
 </defs>
 <g id="Layer_x0020_1">
  <metadata id="CorelCorpID_0Corel-Layer"/>
  <rect class="fil0" width="1439" height="1439"/>
  <g id="_1867407088672">
   <path class="fil1" d="M946 836c-9,25 -49,36 -73,43 -34,11 -262,13 -314,1 -41,-9 -71,-26 -68,-54 6,-61 268,-61 308,-61 8,0 68,7 79,14 7,6 11,35 47,48 8,3 15,2 21,9zm-76 -46c-20,27 19,71 48,50l6 -5 -4 -2 -2 -1c-9,0 -20,1 -30,-9 -9,-10 -10,-22 -18,-33zm83 21c-16,-8 -33,-5 -45,-27 -5,-10 -5,-17 -15,-24 -6,-4 -19,-8 -25,-9 -68,-18 -287,-10 -352,19 -18,7 -34,15 -44,34 -7,16 -7,33 1,49 14,27 46,44 84,52 67,15 313,5 360,-16 17,-8 35,-14 45,-32 10,-16 12,-35 -9,-46z"/>
   <path class="fil1" d="M720 191c-292,0 -529,237 -529,529 0,292 237,528 529,528 292,0 528,-236 528,-528 0,-292 -236,-529 -528,-529zm0 23c279,0 505,226 505,506 0,279 -226,505 -505,505 -280,0 -506,-226 -506,-505 0,-280 226,-506 506,-506z"/>
   <path class="fil1" d="M1023 425c-29,0 -52,23 -52,52 0,28 23,52 52,52 29,0 52,-24 52,-52 0,-29 -23,-52 -52,-52zm0 24c15,0 27,13 27,28 0,15 -12,27 -27,27 -15,0 -27,-12 -27,-27 0,-15 12,-28 27,-28zm86 258c0,-28 -22,-51 -50,-51l-26 0 0 -70c0,-7 -6,-13 -13,-13l-612 0c-7,0 -12,6 -12,13l0 70 -26 0c-28,0 -51,23 -51,51l0 25c0,28 23,51 51,51l26 0 0 121c0,45 37,82 81,82l474 0c45,0 82,-37 82,-82l0 -121 26 0c28,0 50,-23 50,-51l0 -25zm-713 -26l0 77 -26 0c-14,0 -26,-12 -26,-26l0 -25c0,-14 12,-26 26,-26l26 0zm612 -83l0 306c0,32 -26,57 -57,57l-474 0c-31,0 -56,-25 -56,-57l0 -306 587 0zm77 109l0 25c0,14 -12,26 -26,26l-26 0 0 -77 26 0c14,0 26,12 26,26zm-117 -365c3,0 6,-1 8,-3l3 -3c5,-5 5,-13 0,-18 -5,-4 -12,-4 -17,0l-3 3c-5,5 -5,13 0,18 2,2 5,3 9,3zm-141 194c0,-21 18,-39 39,-39 21,0 39,18 39,39 0,7 5,12 12,12 7,0 12,-5 12,-12 0,-35 -28,-63 -63,-63 -35,0 -63,28 -63,63 0,7 5,12 12,12 7,0 12,-5 12,-12zm-416 -15c1,5 6,9 12,9 1,0 2,0 3,0l595 -141c7,-1 11,-8 9,-15 -1,-6 -8,-11 -15,-9l-236 56 -6 -25c-3,-14 -11,-25 -22,-32 -12,-7 -26,-9 -39,-6l-24 6c-13,3 -24,11 -32,22 -7,12 -9,26 -6,39l6 25 -236 56c-7,1 -11,8 -9,15zm263 -102c-3,-14 6,-28 20,-31l24 -6c2,-1 4,-1 6,-1 12,0 23,8 25,20l6 26 -75 17 -6 -25z"/>
   <path class="fil1" d="M523 698l20 15c6,3 7,11 3,17 -4,6 -11,7 -17,3l-50 -36c-4,-2 -6,-6 -6,-10 0,-4 2,-8 6,-10l50 -36c6,-4 13,-2 17,3 4,6 3,14 -3,18l-20 14 363 0 -20 -14c-6,-4 -7,-12 -3,-18 4,-5 11,-7 17,-3l50 36c4,2 5,6 5,10 0,4 -1,8 -5,10l-50 36c-6,4 -13,3 -17,-3 -4,-6 -3,-14 3,-17l20 -15 -363 0z"/>
   <path class="fil1" d="M645 1150l6 -18c4,-14 3,-29 -4,-42l-21 -38c-2,-2 -5,-3 -7,-3 -3,1 -5,3 -5,6l0 34c0,1 0,3 0,4 -1,-5 -3,-10 -6,-14l-25 -45c-1,-3 -4,-4 -7,-3 -3,0 -5,3 -5,6l0 41c0,10 -3,21 -10,29 -2,3 -4,7 -6,10 0,-1 -1,-2 -2,-3 -5,-7 -8,-16 -8,-25l0 -34c0,-3 -2,-5 -5,-6 -2,-1 -5,1 -7,3l-21 38c-7,13 -8,28 -4,42l6 18c1,3 3,5 6,5l119 0c3,0 5,-2 6,-5l0 0zm-125 -21c-4,-11 -2,-23 3,-33l10 -17 0 10c0,12 3,23 10,32 3,4 6,9 7,14 -1,2 -1,5 -1,7l-24 0 -5 -13zm42 13c0,-10 3,-19 9,-27 8,-11 13,-24 13,-37l0 -17 13 24c6,11 8,23 6,34 -1,3 1,6 3,8 3,1 6,0 8,-3l1 -1c0,-1 0,-1 1,-2 7,-9 10,-20 10,-32l0 -10 10 17c5,10 6,22 3,33l-5 13 -72 0zm0 0z"/>
   <path class="fil1" d="M925 1150l6 -19c5,-15 3,-31 -4,-45l-23 -40c-1,-2 -4,-4 -7,-3 -3,1 -5,3 -5,6l0 36c0,2 0,3 0,4 -1,-5 -3,-10 -6,-14l-27 -49c-1,-2 -4,-3 -7,-3 -3,1 -5,4 -5,7l0 43c0,11 -4,22 -11,32 -2,3 -4,6 -6,10 -1,-1 -2,-3 -3,-4 -5,-7 -8,-16 -8,-25l0 -37c0,-3 -2,-5 -5,-6 -3,-1 -6,1 -7,3l-23 40c-7,14 -9,30 -4,45l6 19c1,3 4,5 7,5l125 0c3,0 6,-2 7,-5l0 0zm-132 -23c-4,-11 -3,-24 3,-34l10 -18 0 10c0,13 4,24 11,34 3,4 6,10 7,15 0,2 -1,5 -1,7l-26 0 -4 -14zm43 14c1,-10 5,-20 11,-29 8,-11 13,-25 13,-39l0 -18 15 26c6,11 8,24 5,36 -1,4 1,7 4,8 3,1 6,0 8,-3l1 -1c0,-1 1,-1 1,-2 7,-10 11,-21 11,-34l0 -10 10 18c6,10 7,23 3,34l-4 14 -78 0zm0 0z"/>
   <path class="fil1" d="M808 1149l7 -22c6,-17 4,-36 -5,-52l-26 -47c-2,-3 -5,-5 -9,-4 -3,1 -5,4 -5,7l0 43c0,1 -1,2 -1,4 -1,-6 -4,-12 -7,-17l-31 -57c-2,-3 -5,-4 -9,-3 -3,1 -5,4 -5,7l0 51c0,13 -5,26 -13,37 -3,4 -5,8 -7,12 -1,-1 -2,-3 -3,-4 -7,-9 -10,-19 -10,-30l0 -43c0,-3 -3,-6 -6,-7 -3,-1 -7,1 -9,4l-26 47c-9,16 -10,35 -5,52l8 22c1,3 4,6 7,6l147 0c4,0 7,-3 8,-6l0 0zm-155 -27c-4,-13 -3,-28 4,-40l11 -21 0 13c0,14 5,28 14,39 3,5 6,11 8,18 -1,2 -1,5 -1,8l-30 0 -6 -17zm51 17c1,-12 5,-24 13,-34 10,-13 15,-29 15,-46l0 -21 17 30c7,13 9,29 6,43 0,4 2,7 5,9 4,1 7,0 9,-3l1 -2c1,0 1,-1 2,-2 8,-11 13,-25 13,-39l0 -13 12 21c6,12 8,27 3,40l-5 17 -91 0zm0 0z"/>
   <path class="fil2" d="M795 1139l5 -17c5,-13 3,-28 -3,-40l-12 -21 0 13c0,14 -5,28 -13,39 -1,1 -1,2 -2,2l-1 2c-2,3 -5,4 -9,3 -3,-2 -5,-5 -5,-9 3,-14 1,-30 -6,-43l-17 -30 0 21c0,17 -5,33 -15,46 -8,10 -12,22 -13,34l91 0z"/>
   <path class="fil2" d="M690 1131c-2,-7 -5,-13 -8,-18 -9,-11 -14,-25 -14,-39l0 -13 -11 21c-7,12 -8,27 -4,40l6 17 30 0c0,-3 0,-6 1,-8z"/>
  </g>
 </g>
</svg>
