<?xml version="1.0" encoding="UTF-8"?>
<!DOCTYPE svg PUBLIC "-//W3C//DTD SVG 1.0//EN" "http://www.w3.org/TR/2001/REC-SVG-20010904/DTD/svg10.dtd">
<!-- Creator: CorelDRAW X7 -->
<svg xmlns="http://www.w3.org/2000/svg" xml:space="preserve" width="3.33333in" height="3.33333in" version="1.0" style="shape-rendering:geometricPrecision; text-rendering:geometricPrecision; image-rendering:optimizeQuality; fill-rule:evenodd; clip-rule:evenodd"
viewBox="0 0 1439 1439"
 xmlns:xlink="http://www.w3.org/1999/xlink">
 <defs>
  <style type="text/css">
   <![CDATA[
    .fil0 {fill:none}
    .fil1 {fill:#99CC33}
   ]]>
  </style>
 </defs>
 <g id="Layer_x0020_1">
  <metadata id="CorelCorpID_0Corel-Layer"/>
  <rect class="fil0" width="1439" height="1439"/>
  <g id="_1901916918912">
   <path class="fil1" d="M720 191c-292,0 -529,237 -529,529 0,292 237,528 529,528 292,0 528,-236 528,-528 0,-292 -236,-529 -528,-529zm0 23c279,0 505,226 505,506 0,279 -226,505 -505,505 -280,0 -506,-226 -506,-505 0,-280 226,-506 506,-506z"/>
   <g>
    <path class="fil1" d="M695 992c-9,34 9,50 44,38 6,-2 15,-6 21,-10 1,-1 2,-1 3,-2 28,-16 62,-50 81,-75 12,-16 26,-36 32,-59 4,-13 3,-28 -5,-35 -5,-4 -11,-3 -17,-2 -1,0 -2,1 -4,1 -18,5 -25,6 -44,13 -17,7 -36,28 -50,42 -15,14 -38,42 -48,61 -5,8 -10,18 -13,28zm163 -125c-1,0 -2,1 -3,1 -15,4 -26,6 -41,12 -14,6 -33,26 -44,37 -15,14 -35,39 -45,57 -4,7 -8,15 -10,23 -1,3 -3,13 -1,16 3,2 15,-1 18,-2 5,-2 12,-5 16,-8 2,-1 3,-2 5,-3 26,-14 57,-46 75,-70 12,-15 23,-33 29,-52 0,-2 1,-7 1,-11z"/>
    <path class="fil1" d="M556 745c-5,17 -10,36 -8,53 1,5 2,10 5,14 3,5 5,9 12,11 15,4 23,-3 33,-8 4,-3 13,-11 17,-14 7,-8 16,-18 23,-26 14,-20 28,-42 39,-64 12,-27 16,-41 17,-71 0,-11 0,-24 -8,-30 -5,-5 -13,-6 -20,-2 -7,3 -8,3 -16,9 -2,1 -5,2 -7,4l-13 8c-17,13 -31,29 -43,48 -12,20 -24,45 -31,68zm15 58c6,2 11,-3 16,-6 4,-2 10,-8 14,-11 7,-7 14,-15 20,-24 15,-18 27,-39 37,-60 11,-24 14,-36 15,-62 0,-3 1,-9 0,-13 -4,2 -7,3 -12,7 -2,1 -5,2 -7,4l-12 8c-16,11 -27,25 -37,42 -12,19 -23,41 -29,62 -4,13 -10,32 -8,45 0,3 1,5 2,7 1,1 1,1 1,1z"/>
    <path class="fil1" d="M436 624c-6,22 -6,21 -9,45 -3,25 -1,61 4,87 1,3 1,4 2,6 3,13 13,47 20,59l7 9c13,12 32,13 43,-3 20,-26 19,-80 18,-112 -2,-31 -5,-47 -16,-74l-12 -21c-10,-14 -28,-36 -46,-16 -4,4 -9,12 -11,20l0 0zm34 185l5 7c4,4 9,4 12,-1 16,-21 15,-73 14,-99 -2,-27 -4,-42 -14,-66l-11 -19c-3,-3 -9,-12 -13,-14 -1,0 -1,0 -1,0 -3,3 -5,8 -6,12l0 0c-2,7 -4,14 -5,21 -2,7 -3,14 -4,21 -3,25 -1,57 4,81 1,2 1,4 2,6 2,9 5,19 7,28 3,6 6,17 10,23z"/>
    <path class="fil1" d="M786 554c-5,17 -11,36 -12,53 -1,13 -2,25 -1,37 0,13 0,23 2,35 2,18 22,31 39,23 11,-5 25,-25 31,-36 10,-19 24,-57 30,-80 6,-19 6,-35 5,-53 0,-5 -1,-10 -2,-15 -1,-9 -5,-21 -7,-29 -2,-6 -5,-12 -8,-17 -7,-10 -17,-9 -26,-4 -24,15 -44,59 -51,86zm61 -68c0,0 0,0 0,0 -19,11 -36,53 -42,73 -4,16 -9,34 -11,50 -1,11 -1,23 -1,35 0,11 0,22 2,32 0,5 6,10 10,8 7,-3 18,-21 22,-28 6,-11 12,-25 17,-38 4,-12 8,-25 12,-37 4,-16 5,-30 4,-47 -1,-4 -1,-9 -2,-14 -1,-8 -4,-17 -7,-25 -1,-3 -2,-7 -4,-9z"/>
    <path class="fil1" d="M693 823c34,9 73,10 106,6 19,-2 45,-8 63,-15 8,-3 16,-6 22,-11 5,-4 16,-12 18,-20 4,-15 -11,-20 -22,-26 -50,-27 -96,-25 -148,-15 -3,1 -5,1 -8,2 -7,1 -21,6 -28,9 -5,2 -9,3 -14,6 -8,4 -17,9 -23,18 -7,11 -4,23 3,29 7,8 18,13 31,17zm187 -43c-4,-2 -8,-4 -10,-5 -45,-25 -86,-22 -134,-13 -3,0 -5,1 -7,2 -8,1 -18,5 -26,8 -4,1 -7,2 -11,4 -4,3 -13,7 -16,12 -1,1 -1,3 1,4 5,6 15,9 22,11 30,9 66,9 98,6 18,-2 41,-7 58,-14 5,-2 12,-4 17,-8 2,-2 5,-5 8,-7z"/>
    <path class="fil1" d="M468 905c-7,25 29,38 45,46 8,3 9,4 18,5l58 6c28,3 42,2 69,-6 12,-4 49,-19 53,-33 3,-12 -6,-20 -13,-26 -4,-3 -10,-7 -14,-9 -10,-4 -37,-11 -49,-15 -38,-10 -156,-10 -167,32zm222 13c-1,-2 -4,-4 -5,-5 -3,-2 -7,-5 -10,-7 -6,-2 -15,-5 -21,-7 -8,-2 -16,-4 -24,-6 -20,-6 -53,-6 -74,-4 -16,1 -35,3 -51,9 -4,1 -16,7 -18,12 -2,7 31,20 35,22 6,3 5,3 11,4l58 6c25,2 37,2 60,-5 8,-3 31,-12 39,-19z"/>
    <path class="fil1" d="M932 506c-13,7 -15,16 -19,30 -7,28 -4,67 2,96 4,22 18,68 33,88 5,7 5,9 12,15 7,7 20,14 31,7l3 -2c14,-8 17,-30 18,-41l1 -46c0,-32 -10,-71 -26,-99 -10,-17 -15,-25 -28,-38 -7,-7 -18,-15 -27,-10zm7 20c-4,3 -5,9 -6,15 -7,25 -4,62 2,87 4,21 16,63 29,80 4,5 5,8 10,13 1,1 5,4 7,4l3 -2c5,-3 7,-20 8,-25l0 -45c0,-29 -8,-65 -23,-89 -8,-14 -13,-23 -25,-34 -1,-1 -3,-3 -5,-4z"/>
    <path class="fil1" d="M570 556c-4,12 -6,23 -4,34 6,30 43,21 63,6l17 -15c3,-2 5,-5 8,-7 22,-20 38,-39 53,-64 13,-20 25,-78 20,-90 -2,-4 -8,-10 -13,-11 -9,-3 -20,1 -26,3 -8,4 -15,8 -22,13 -39,28 -84,88 -96,131zm46 24l17 -14c2,-3 5,-5 8,-7 20,-18 35,-37 49,-60 6,-9 10,-25 12,-35 2,-7 7,-26 6,-36 0,0 0,0 -1,0 -3,0 -9,2 -12,3 -6,3 -12,6 -17,10 -34,25 -78,80 -89,120 -2,8 -5,17 -3,25 0,1 1,3 1,3 3,2 14,-1 17,-2 4,-2 8,-4 12,-7z"/>
    <path class="fil1" d="M995 893c3,-11 5,-22 5,-34 0,-5 -1,-9 -1,-14 -2,-20 -2,-22 -8,-42 -1,-4 -2,-9 -4,-12 -2,-4 -7,-9 -11,-10 -3,-1 -10,-1 -12,0 -11,3 -20,12 -26,21 -15,19 -26,50 -36,73 -6,15 -5,10 -7,26l-5 54c0,11 -2,38 5,48 7,11 18,17 32,14 12,-2 20,-11 26,-22 12,-21 28,-50 35,-74l7 -28zm-19 -5c2,-10 4,-19 3,-28 0,-5 0,-9 0,-13 -1,-7 -1,-13 -2,-19 -2,-7 -4,-13 -5,-19 -1,-3 -2,-6 -3,-9 0,0 0,0 -1,0 -5,3 -11,10 -14,14 -14,18 -24,47 -33,69 -2,3 -4,7 -5,10 0,3 -1,7 -1,10l-4 53c-1,8 -2,30 1,36 3,4 6,6 11,5 6,-1 10,-7 12,-12 12,-21 27,-46 33,-69l8 -28z"/>
   </g>
   <path class="fil1" d="M472 375c5,0 10,2 14,6 1,1 3,2 4,1 1,-1 2,-2 3,-2 8,-5 19,-2 24,6 3,5 4,10 2,15 -1,2 0,3 2,4 1,0 2,1 3,1 9,5 12,17 7,25 -3,5 -8,8 -13,9 -1,0 -2,2 -2,4 0,1 0,2 0,3 0,10 -8,18 -18,18 -5,0 -10,-2 -14,-6 -1,-1 -3,-1 -4,0 -1,0 -2,1 -3,2 -8,5 -19,2 -24,-7 -3,-5 -4,-10 -2,-15 1,-2 0,-3 -2,-4 -1,0 -2,-1 -3,-1 -9,-5 -12,-16 -7,-25 3,-5 8,-8 13,-9 1,0 2,-2 2,-3 0,-1 0,-3 0,-4 0,-10 8,-18 18,-18zm-1 52c5,1 10,4 13,9 3,-5 8,-7 14,-7 -2,-5 -2,-11 1,-16 -5,-1 -10,-4 -13,-8 -3,4 -8,6 -14,6 2,5 2,11 -1,16z"/>
   <path class="fil1" d="M670 297c4,4 5,11 4,16 0,2 1,4 3,5 1,0 3,0 4,1 11,4 16,16 12,27 -2,6 -7,10 -12,12 -2,1 -3,3 -2,5 0,1 0,2 1,4 1,11 -6,22 -18,24 -6,1 -12,-1 -17,-5 -1,-1 -4,-1 -5,1 -1,1 -2,2 -3,3 -9,7 -22,6 -30,-4 -4,-4 -5,-11 -4,-16 0,-2 -1,-4 -3,-5 -1,0 -2,0 -4,-1 -11,-4 -16,-16 -12,-27 2,-6 7,-10 12,-12 2,-1 3,-3 3,-5 -1,-1 -1,-2 -1,-4 -2,-11 6,-22 17,-24 6,-1 12,1 17,5 1,1 4,1 5,-1 1,-1 2,-2 3,-3 9,-7 22,-6 30,4zm-48 37c3,5 4,12 2,18 6,0 12,2 16,8 3,-6 8,-10 15,-11 -3,-5 -4,-12 -2,-18 -6,0 -12,-2 -16,-8 -3,6 -8,10 -15,11z"/>
   <path class="fil1" d="M794 291c5,0 10,2 13,6 1,1 3,1 5,0 0,-1 1,-1 2,-2 9,-5 20,-2 25,7 3,5 3,10 2,15 -1,1 0,3 2,4 1,0 2,0 3,1 8,5 11,16 6,25 -2,5 -7,8 -12,9 -1,0 -3,2 -2,3 0,1 0,2 0,4 0,10 -8,18 -18,18 -6,0 -10,-3 -14,-6 -1,-2 -3,-2 -4,-1 -1,1 -2,2 -3,2 -8,5 -20,2 -25,-6 -2,-5 -3,-11 -1,-15 0,-2 0,-4 -2,-4 -1,-1 -2,-1 -3,-2 -9,-5 -12,-16 -7,-24 3,-5 7,-8 12,-9 2,0 3,-2 3,-4 0,-1 -1,-2 -1,-3 0,-10 9,-18 19,-18zm-1 52c5,0 10,3 13,8 3,-4 8,-7 14,-7 -2,-4 -2,-10 1,-15 -5,-1 -10,-4 -13,-9 -3,4 -8,7 -14,7 2,5 2,11 -1,16z"/>
   <path class="fil1" d="M918 384c5,-3 10,-3 15,-2 2,1 4,0 4,-2 0,-1 1,-2 2,-3 5,-8 16,-11 24,-6 5,3 8,7 9,12 0,2 2,3 4,2 1,0 2,0 3,0 10,0 18,8 18,18 0,6 -2,11 -6,14 -1,1 -2,3 -1,4 1,1 2,2 2,3 5,9 2,20 -6,25 -5,3 -11,3 -15,1 -2,0 -4,1 -4,2 -1,1 -1,2 -2,3 -5,9 -16,12 -25,7 -4,-3 -7,-8 -8,-12 0,-2 -2,-3 -4,-3 -1,0 -2,0 -3,0 -10,0 -18,-8 -18,-18 0,-5 2,-10 6,-14 1,-1 2,-3 0,-4 0,-1 -1,-2 -2,-3 -4,-8 -1,-19 7,-24zm25 45c5,-2 11,-2 16,1 0,-5 4,-10 8,-13 -4,-3 -6,-8 -6,-14 -5,2 -11,2 -16,-1 -1,5 -4,10 -9,13 5,3 7,8 7,14z"/>
   <path class="fil1" d="M1047 475c5,-3 11,-4 17,-2 1,1 3,0 4,-2 0,-1 1,-2 2,-3 5,-10 18,-13 28,-8 5,3 9,9 10,14 0,2 2,3 4,3 1,0 2,0 4,0 11,0 20,9 20,20 0,7 -3,12 -7,16 -2,1 -2,3 0,5 0,1 1,2 2,3 5,10 2,22 -8,28 -5,3 -12,3 -17,2 -2,-1 -4,0 -4,2 -1,1 -1,2 -2,3 -6,10 -18,13 -28,7 -5,-3 -9,-8 -10,-13 0,-2 -2,-3 -4,-3 -1,0 -3,0 -4,0 -11,0 -20,-9 -20,-21 0,-6 2,-11 7,-15 1,-1 1,-3 0,-5 -1,-1 -1,-2 -2,-3 -6,-10 -2,-22 8,-28zm28 51c5,-2 12,-1 17,2 1,-6 5,-12 10,-15 -4,-4 -7,-9 -7,-16 -6,3 -12,2 -18,-1 -1,6 -4,11 -10,15 5,3 8,9 8,15z"/>
   <path class="fil1" d="M325 555c5,0 9,2 12,5 1,1 3,1 4,0 1,0 2,-1 3,-1 8,-5 18,-2 23,6 2,4 2,9 1,13 -1,2 0,3 2,4 1,0 2,1 3,1 7,5 10,15 6,23 -3,4 -7,7 -12,8 -1,0 -2,2 -2,3 0,1 1,2 1,3 0,9 -8,17 -17,17 -5,0 -9,-2 -12,-6 -1,-1 -3,-1 -4,0 -1,1 -2,1 -3,2 -8,4 -18,2 -23,-6 -2,-5 -2,-10 -1,-14 1,-1 0,-3 -2,-4 -1,0 -2,0 -3,-1 -7,-4 -10,-15 -6,-23 3,-4 7,-7 12,-7 1,-1 2,-2 2,-4 0,-1 -1,-2 -1,-3 0,-9 8,-16 17,-16zm-1 47c5,1 9,3 12,8 3,-4 8,-6 13,-6 -2,-5 -2,-10 1,-15 -5,0 -9,-3 -12,-7 -3,3 -8,6 -13,6 2,4 2,9 -1,14z"/>
   <path class="fil1" d="M1093 716c3,-2 7,-2 11,-1 1,1 3,0 3,-1 0,-1 1,-2 1,-3 4,-6 13,-9 19,-5 4,2 6,6 7,10 0,1 1,2 3,2 0,-1 1,-1 2,-1 8,0 14,7 14,14 0,5 -2,8 -5,11 -1,1 -1,2 0,3 1,1 1,1 1,2 4,7 2,15 -5,19 -3,2 -8,3 -11,1 -1,0 -3,1 -3,2 0,1 -1,1 -1,2 -4,7 -13,9 -19,5 -4,-2 -6,-6 -7,-9 0,-2 -1,-2 -3,-2 0,0 -1,0 -2,0 -8,0 -14,-6 -14,-14 0,-4 2,-8 5,-10 1,-1 1,-3 0,-4 -1,0 -1,-1 -2,-2 -3,-7 -1,-15 6,-19zm19 35c4,-1 8,-1 12,1 0,-4 3,-8 6,-10 -3,-2 -5,-6 -5,-11 -4,2 -8,2 -12,-1 0,4 -3,8 -6,10 3,3 5,7 5,11z"/>
   <path class="fil1" d="M1042 908c3,-2 7,-3 11,-1 1,0 2,-1 3,-2 0,-1 1,-1 1,-2 4,-7 12,-9 19,-5 4,2 6,5 7,9 0,1 1,2 2,2 1,0 2,0 3,0 8,0 14,6 14,14 0,4 -2,8 -5,10 -1,1 -1,3 0,4 0,0 1,1 1,2 4,6 2,15 -5,19 -4,2 -8,2 -11,1 -2,-1 -3,0 -3,1 -1,1 -1,2 -1,3 -4,6 -13,8 -19,5 -4,-3 -6,-6 -7,-10 0,-1 -2,-2 -3,-2 -1,0 -2,1 -2,1 -8,-1 -14,-7 -14,-14 0,-5 2,-8 5,-11 1,-1 1,-2 0,-3 -1,-1 -1,-2 -2,-2 -4,-7 -1,-16 6,-19zm19 35c3,-2 8,-2 11,0 1,-4 3,-7 7,-9 -3,-3 -5,-7 -5,-11 -4,1 -8,1 -12,-1 0,4 -3,8 -7,10 4,2 6,6 6,11z"/>
   <path class="fil1" d="M822 1042c6,-3 12,-4 17,-2 2,1 4,0 5,-2 0,-1 1,-2 1,-3 6,-10 19,-14 29,-8 5,3 8,8 9,14 1,2 3,3 4,3 2,0 3,0 4,0 12,0 21,9 21,20 0,6 -3,12 -7,16 -2,1 -2,3 -1,5 1,1 2,2 2,3 6,10 3,22 -7,28 -6,3 -12,3 -17,1 -2,0 -4,1 -5,3 0,1 -1,2 -1,3 -6,10 -19,13 -28,7 -6,-3 -9,-8 -10,-14 -1,-1 -2,-3 -4,-2 -1,0 -3,0 -4,0 -11,0 -21,-9 -21,-21 0,-6 3,-11 8,-15 1,-1 1,-4 0,-5 -1,-1 -2,-2 -2,-3 -6,-10 -2,-23 7,-28zm29 51c5,-2 12,-2 17,2 1,-6 5,-12 10,-15 -4,-4 -7,-9 -7,-16 -6,2 -12,2 -18,-1 -1,6 -4,11 -10,14 5,4 8,10 8,16z"/>
   <path class="fil1" d="M645 1082c3,-2 7,-2 11,-1 1,1 3,0 3,-1 0,-1 1,-2 1,-3 4,-6 13,-8 19,-4 4,2 6,5 7,9 0,1 1,2 3,2 0,0 1,0 2,0 8,0 14,6 14,14 0,4 -2,7 -5,10 -1,1 -1,2 0,3 1,1 1,2 2,2 3,7 1,16 -6,19 -3,2 -7,3 -11,1 -1,0 -3,1 -3,2 0,1 -1,1 -1,2 -4,7 -13,9 -19,5 -4,-2 -6,-5 -7,-9 0,-1 -1,-2 -3,-2 0,0 -1,0 -2,0 -8,0 -14,-6 -14,-14 0,-4 2,-8 5,-10 1,-1 1,-3 0,-4 -1,0 -1,-1 -2,-2 -3,-6 -1,-15 6,-19zm19 35c4,-1 8,-1 12,1 0,-4 3,-8 6,-10 -3,-2 -5,-6 -5,-10 -4,1 -8,1 -12,-1 0,4 -3,7 -6,9 3,3 5,7 5,11z"/>
   <path class="fil1" d="M392 951c6,-3 12,-4 17,-2 2,1 4,0 5,-2 0,-1 1,-2 1,-4 6,-9 19,-13 28,-7 6,3 9,8 10,14 1,2 2,3 4,3 2,-1 3,-1 4,-1 11,0 21,10 21,21 0,6 -3,12 -8,16 -1,1 -1,3 0,4 1,1 2,2 2,4 6,9 2,22 -7,28 -6,3 -12,3 -17,1 -2,0 -4,1 -5,2 0,2 -1,3 -1,4 -6,10 -19,13 -29,7 -5,-3 -8,-8 -9,-14 -1,-2 -3,-3 -4,-2 -2,0 -3,0 -4,0 -12,0 -21,-9 -21,-21 0,-6 3,-11 7,-15 2,-1 2,-4 1,-5 -1,-1 -2,-2 -2,-3 -6,-10 -3,-23 7,-28zm28 51c6,-2 12,-2 18,2 1,-6 4,-12 10,-15 -5,-4 -8,-9 -8,-16 -5,2 -12,2 -17,-1 -1,6 -5,11 -10,14 4,4 7,10 7,16z"/>
   <path class="fil1" d="M339 751c5,0 10,2 13,5 1,2 3,2 4,1 1,-1 1,-2 2,-2 8,-5 18,-2 23,6 2,4 3,9 1,14 0,1 1,3 2,3 1,0 2,1 3,1 8,5 11,15 6,23 -3,4 -7,7 -11,8 -2,0 -3,2 -2,3 0,1 0,2 0,3 0,10 -7,17 -17,17 -5,0 -9,-2 -12,-6 -1,-1 -3,-1 -4,0 -1,1 -2,1 -3,2 -8,5 -18,2 -22,-6 -3,-4 -3,-9 -2,-14 1,-1 0,-3 -1,-3 -1,-1 -2,-1 -3,-2 -8,-4 -11,-14 -6,-22 2,-5 6,-7 11,-8 1,-1 2,-2 2,-3 0,-1 0,-3 0,-4 0,-9 7,-16 16,-16zm0 47c4,1 9,4 11,8 3,-4 8,-6 13,-6 -2,-5 -1,-10 1,-14 -5,-1 -9,-4 -12,-8 -3,4 -7,6 -12,6 1,4 1,10 -1,14z"/>
  </g>
 </g>
</svg>
