<?xml version="1.0" encoding="UTF-8"?>
<!DOCTYPE svg PUBLIC "-//W3C//DTD SVG 1.0//EN" "http://www.w3.org/TR/2001/REC-SVG-20010904/DTD/svg10.dtd">
<!-- Creator: CorelDRAW X7 -->
<svg xmlns="http://www.w3.org/2000/svg" xml:space="preserve" width="3.33333in" height="3.33333in" version="1.0" style="shape-rendering:geometricPrecision; text-rendering:geometricPrecision; image-rendering:optimizeQuality; fill-rule:evenodd; clip-rule:evenodd"
viewBox="0 0 1439 1439"
 xmlns:xlink="http://www.w3.org/1999/xlink">
 <defs>
  <style type="text/css">
   <![CDATA[
    .fil0 {fill:none}
    .fil1 {fill:#99CC33}
   ]]>
  </style>
 </defs>
 <g id="Layer_x0020_1">
  <metadata id="CorelCorpID_0Corel-Layer"/>
  <rect class="fil0" width="1439" height="1439"/>
  <path class="fil1" d="M475 786c4,-29 4,-45 -2,-73l-8 -22c-8,-15 -21,-39 -42,-23 -5,4 -10,10 -13,17l0 0c-10,20 -9,20 -17,41 -5,18 -9,42 -10,64 13,-2 27,-2 43,-1 12,0 34,1 48,6 0,-3 1,-6 1,-9zm31 -87c26,15 43,-18 45,-41l0 -22c0,-4 0,-7 0,-11 1,-20 -1,-37 -5,-54 -24,3 -60,22 -86,43 6,23 14,44 24,60 6,10 12,19 22,25zm267 -163c-19,17 -59,27 -89,23 1,7 1,13 2,19 3,12 5,24 9,35 3,12 6,21 10,32 7,17 29,24 43,12 9,-8 17,-30 20,-42 5,-20 8,-59 8,-82l-3 3zm-99 107c3,-16 -12,-70 -26,-76 -6,-3 -13,-2 -19,3 -19,18 -40,38 -47,65 -3,10 -2,8 -4,19 11,-9 17,0 41,-3 15,-2 36,-2 54,-1 0,-3 1,-5 1,-7zm-40 267c-47,11 -109,36 -109,67 0,25 37,28 54,31 9,2 10,2 19,1l52 -9c0,-2 -1,-3 -1,-5 -9,-27 -21,-58 -15,-85zm228 35c-12,14 -21,24 -35,29 16,12 36,26 51,33 8,4 18,8 27,10 34,7 48,-12 35,-44 -3,-6 -8,-15 -12,-20 -1,-1 -1,-2 -2,-3 -10,-16 -27,-34 -45,-49 -3,17 -10,33 -19,44zm68 -348c16,14 53,42 77,50 8,2 8,4 18,5 10,1 23,-1 28,-13l2 -4c5,-13 -5,-32 -11,-42l-25 -36c-10,-13 -22,-26 -36,-37 -12,1 -28,4 -36,10 -16,14 -30,30 -35,48 6,7 12,13 18,19zm-45 168c0,-6 -1,-11 -1,-17 0,-19 -4,-44 -10,-62 -2,-8 -5,-15 -9,-22 -4,-5 -11,-16 -18,-19 -14,-5 -20,10 -27,20 -21,32 -27,64 -28,97 8,7 17,13 25,16 37,13 46,1 68,-13zm60 -104c-7,7 -10,19 -11,30 -3,24 3,55 7,79 1,14 1,12 5,21 28,3 68,-11 87,-31l-6 -22c-3,-10 -7,-19 -13,-29 -2,-5 -5,-8 -7,-12 -12,-16 -13,-18 -28,-31 -3,-3 -6,-6 -10,-9 -3,-2 -10,-3 -13,-2 -3,0 -9,4 -11,6zm-421 -175c24,23 47,56 52,81 9,-3 17,-6 26,-10 21,-8 64,-46 67,-59 0,-4 -1,-12 -4,-16 -6,-7 -17,-11 -23,-12 -8,-2 -16,-3 -24,-3 -27,0 -62,7 -94,19zm220 33c25,10 72,0 97,-10 10,-4 21,-8 31,-13 -8,-29 -31,-62 -54,-74 -1,0 -2,-1 -4,-2 0,0 0,1 0,1 -18,7 -31,15 -44,27 -4,3 -7,6 -11,10 -7,6 -13,15 -19,23 -3,5 -6,10 -8,15 -3,11 2,19 12,23zm-106 194c-16,7 -35,16 -48,25 -19,14 -26,21 -32,35 7,24 16,41 34,57 4,3 8,6 13,7 5,2 9,3 16,0 13,-7 15,-17 18,-27 1,-5 3,-16 3,-21 3,-32 4,-46 -4,-76zm-90 104c-26,-13 -72,-8 -103,-2 0,15 7,36 10,48 5,15 9,28 15,40 7,-2 14,-4 20,-6 3,-1 3,-2 6,-3 12,-4 43,-19 53,-27l8 -9c10,-14 7,-32 -9,-41zm157 19c-26,9 -46,35 -65,56 -1,2 -3,3 -4,4l2 2c17,22 28,31 52,43 11,5 47,20 59,13 10,-6 10,-18 8,-27 0,-5 -1,-11 -3,-16 -4,-10 -18,-33 -24,-43 -5,-8 -14,-20 -25,-32zm157 -29c-19,0 -43,11 -61,18 -5,2 -9,4 -15,6 -1,16 4,28 11,45 6,13 17,26 31,36 14,-5 27,-12 37,-18 17,-10 36,-23 51,-41 7,-10 12,-24 8,-32 -3,-6 -9,-8 -14,-9 -2,0 -2,0 -4,0 -18,-3 -25,-5 -44,-5zm-95 -18c-20,-15 -34,-20 -34,-59 0,-9 2,-19 6,-28 -28,9 -65,34 -74,64 -4,12 2,22 10,27 28,17 63,6 92,-4zm100 -156c-2,-19 5,-39 13,-58 5,-9 18,-18 29,-24 -16,-4 -33,-7 -48,-7 -19,0 -28,0 -46,5 -8,2 -21,8 -21,18 0,14 6,20 16,30 14,14 36,27 57,36zm181 225c-27,-7 -60,-33 -72,-59 -1,1 -1,2 -2,4l-29 44c-6,9 -20,31 -19,43 1,13 8,23 21,27 12,4 22,-1 33,-7 20,-13 47,-30 63,-47l5 -5zm-328 -667c-292,0 -529,237 -529,529 0,292 237,528 529,528 292,0 528,-236 528,-528 0,-292 -236,-529 -528,-529zm0 23c279,0 505,226 505,506 0,279 -226,505 -505,505 -280,0 -506,-226 -506,-505 0,-280 226,-506 506,-506zm292 650c-13,-8 -26,-18 -36,-29l-14 22c-4,7 -16,25 -16,32 1,4 2,7 7,9 5,2 12,-2 16,-5 14,-8 29,-18 43,-29zm-148 -300c-1,0 -2,0 -3,0 -16,0 -26,0 -41,4 -1,1 -4,1 -6,2 1,6 5,9 10,13 7,7 16,14 26,19 2,-12 7,-24 12,-35 1,-1 1,-2 2,-3zm-138 216c-10,-13 -13,-29 -13,-46 -15,7 -25,23 -29,38 -1,2 -1,3 1,4 15,9 25,8 41,4zm81 64c1,8 5,17 8,24 4,8 10,15 16,21 8,-4 16,-8 24,-12 16,-10 33,-21 45,-36 2,-2 4,-6 5,-9 -1,0 -2,-1 -2,-1 -15,-2 -26,-4 -42,-4 -14,0 -39,11 -53,16 0,1 -1,1 -1,1zm-107 17c-13,8 -27,23 -37,36 10,11 19,18 35,26 7,3 30,12 40,13 0,-3 0,-6 0,-7 -1,-3 -2,-8 -3,-11 -2,-6 -7,-14 -10,-19 -4,-7 -8,-14 -12,-21 -4,-6 -8,-12 -13,-17zm-233 -29c2,9 5,18 7,25 3,7 5,14 7,22 1,-1 2,-1 2,-1 2,-1 4,-2 6,-2 8,-3 17,-8 25,-12 6,-3 16,-8 21,-12l6 -6c3,-4 3,-8 -2,-11 -17,-9 -48,-7 -72,-3zm112 -57c6,17 13,28 26,40 2,1 4,3 6,3 1,1 1,1 1,1 6,-3 6,-9 8,-15 1,-4 2,-12 2,-17 2,-22 7,-24 2,-46 -8,4 -15,9 -22,13 -10,7 -17,12 -23,21zm268 -290c-8,-16 -20,-34 -34,-43 -11,6 -20,13 -30,21 -4,3 -7,6 -10,10 -6,5 -12,13 -16,19 -2,3 -4,6 -5,9 19,8 63,-3 82,-10 4,-2 9,-4 13,-6zm-287 10c11,15 21,31 28,46 2,0 4,-1 6,-2 10,-4 22,-14 30,-20 5,-5 20,-18 25,-25 0,0 0,0 0,0 -3,-2 -9,-4 -11,-5 -7,-1 -14,-2 -20,-2 -19,0 -39,3 -58,8zm399 180c-3,4 -5,13 -5,19 -3,22 3,51 6,73 0,1 1,3 1,4 17,-1 36,-9 50,-18l-3 -9c-2,-9 -6,-17 -11,-25 -2,-4 -4,-7 -6,-10 -4,-5 -8,-11 -12,-15 -4,-5 -9,-9 -13,-14 -2,-1 -4,-4 -6,-5 -1,0 -1,0 -1,0zm-146 78c3,2 7,5 10,6 23,8 28,5 42,-5 0,-1 -1,-3 -1,-5 0,-18 -3,-40 -9,-57 -1,-6 -4,-12 -7,-17 -1,-2 -3,-5 -6,-8 -2,3 -4,7 -5,9 -16,24 -23,49 -24,77zm222 -122l1 -3c2,-5 -6,-19 -8,-24l-25 -36c-8,-10 -17,-19 -26,-27 -6,0 -14,2 -17,4 -9,8 -19,18 -25,29 3,3 6,5 9,8 15,14 49,40 69,46 6,2 8,3 14,4 2,0 6,0 8,-1zm-173 344c8,5 16,10 24,14 7,3 15,7 23,9 3,0 13,2 15,0 2,-4 -1,-15 -3,-17 -2,-5 -5,-12 -8,-16 -2,-1 -2,-2 -3,-4 -6,-8 -12,-16 -20,-24 -3,8 -8,15 -13,21 -5,6 -10,12 -15,17zm-249 -39c-3,1 -6,2 -9,4 -15,5 -32,12 -46,21 -3,3 -13,11 -13,16 0,7 33,11 38,12 6,1 5,1 11,0l31 -5c-5,-15 -10,-31 -12,-48zm43 -307c1,-6 -11,-32 -16,-42 -11,11 -33,33 -37,46 4,-1 9,-1 13,-2 13,-2 27,-2 40,-2zm51 -50c2,10 4,19 7,28 3,11 6,21 10,31 2,4 8,7 11,4 5,-5 12,-25 13,-31 3,-13 5,-28 6,-41 0,0 0,0 0,-1 -15,6 -31,9 -47,10zm-176 77l0 -21c0,-4 0,-7 0,-10 1,-10 0,-20 -1,-29 -16,6 -34,16 -47,26 4,14 10,29 17,41 5,7 9,14 16,19 1,0 2,1 3,1 3,-1 8,-11 9,-14 1,-4 2,-8 3,-13zm-74 115c1,-18 1,-32 -3,-52l-8 -20c-2,-4 -6,-13 -10,-16 0,0 0,1 -1,1 -3,2 -6,6 -7,10l0 0c-3,6 -6,12 -9,18 -2,7 -4,14 -7,21 -3,11 -6,23 -7,36 7,0 14,0 22,0 9,0 20,1 30,2z"/>
 </g>
</svg>
