<?xml version="1.0" encoding="UTF-8"?>
<!DOCTYPE svg PUBLIC "-//W3C//DTD SVG 1.0//EN" "http://www.w3.org/TR/2001/REC-SVG-20010904/DTD/svg10.dtd">
<!-- Creator: CorelDRAW X7 -->
<svg xmlns="http://www.w3.org/2000/svg" xml:space="preserve" width="3.33333in" height="3.33333in" version="1.0" style="shape-rendering:geometricPrecision; text-rendering:geometricPrecision; image-rendering:optimizeQuality; fill-rule:evenodd; clip-rule:evenodd"
viewBox="0 0 1439 1439"
 xmlns:xlink="http://www.w3.org/1999/xlink">
 <defs>
  <style type="text/css">
   <![CDATA[
    .fil0 {fill:none}
    .fil1 {fill:#99CC33}
   ]]>
  </style>
 </defs>
 <g id="Layer_x0020_1">
  <metadata id="CorelCorpID_0Corel-Layer"/>
  <rect class="fil0" width="1439" height="1439"/>
  <g id="_1901920628960">
   <path class="fil1" d="M1037 766c-3,-10 -5,-15 -8,-20 -1,2 -3,5 -8,10 -5,5 -7,0 -15,-6 -15,-11 -2,-10 -22,17 -6,10 -17,4 -28,1 -3,18 -5,38 -8,54 -2,18 -2,13 0,28l11 56c2,12 8,39 17,48 11,8 24,11 37,5 11,-6 16,-17 20,-30 6,-25 14,-58 14,-84l0 -30c0,-12 -1,-23 -5,-35 -1,-5 -3,-10 -5,-14zm-16 12c-2,0 -3,0 -5,0 -5,0 -9,-2 -12,-4 -1,1 -2,3 -3,5 -4,6 -10,10 -16,12 -5,1 -9,2 -13,1 -1,11 -2,22 -4,33 -2,14 -2,9 0,22l10 55c2,8 7,31 12,37 4,3 8,5 14,2 6,-3 8,-11 9,-17 6,-24 14,-54 14,-79l0 -30c0,-10 -1,-20 -4,-29 -1,-3 -2,-6 -2,-8zm-155 -159c16,8 32,16 49,21 21,8 66,18 88,16 7,-1 10,0 16,-2 2,-1 7,-3 8,-5 0,0 0,0 0,0l0 -5c0,-6 -14,-17 -19,-21l-40 -24c-19,-11 -43,-19 -67,-23 -1,4 -3,8 -7,12 -11,10 -22,7 -34,6 1,3 2,7 2,11 1,5 3,9 4,14zm-267 314c8,12 12,26 3,39 -2,4 -4,6 -6,7 2,3 3,5 4,7l55 -9c25,-4 38,-8 59,-22 8,-5 29,-22 35,-31 -2,-2 -6,-4 -8,-4 -3,-2 -8,-3 -12,-4 -6,-1 -16,-1 -23,-1 -9,0 -17,0 -26,0 -22,0 -54,9 -75,16 -2,1 -4,1 -6,2zm-3 -89c0,0 0,0 0,0 7,0 11,-7 16,-12 3,-3 8,-10 10,-15 6,-9 11,-19 15,-29 9,-23 16,-47 20,-71 1,-9 3,-18 3,-26 -7,-6 -14,-13 -20,-21 -1,1 -3,2 -5,2 -7,3 -15,8 -23,8 -7,11 -11,23 -15,36 -6,23 -12,49 -12,72 0,14 -1,34 5,47 1,3 2,5 4,7 1,1 1,1 2,2zm-145 -123l-16 -16c-4,-3 -14,-10 -19,-11 -1,1 -1,1 -1,2 -2,4 -3,9 -3,14l0 0c0,7 0,15 0,22 1,7 2,15 3,23 3,25 15,57 27,80 1,2 2,4 3,6 4,8 9,16 14,24 4,-8 9,-16 15,-23 6,-7 14,-8 23,-7 -4,-18 -9,-35 -14,-51 -9,-26 -15,-41 -32,-63zm66 -129c9,1 17,5 20,15 2,6 3,15 4,22 0,0 0,1 0,1 5,0 10,-1 15,-1l1 -1c2,-3 4,-6 6,-9 15,-24 25,-47 33,-74 3,-11 3,-28 3,-39 0,-8 -1,-29 -4,-38 -1,-1 -1,-1 -2,-1 -3,1 -10,5 -12,7 -6,4 -10,10 -15,15 -21,26 -40,67 -49,103zm211 -146c0,0 0,1 -1,1 -15,16 -22,64 -22,86 0,17 0,36 3,53 2,8 3,15 5,22 12,8 23,14 36,19 2,-1 6,-3 8,-5 3,-13 4,-27 5,-40 2,-14 2,-28 2,-41 0,-18 -3,-32 -8,-48 -2,-5 -4,-10 -6,-14 -3,-8 -9,-17 -14,-24 -2,-3 -5,-6 -8,-9zm71 519c2,5 4,10 6,14 1,0 2,-1 3,-1 4,-1 8,-3 12,-5 3,-1 5,-1 8,-2 7,-1 14,1 19,5 17,-22 34,-53 44,-77 7,-19 14,-40 14,-60 0,-3 -1,-10 -3,-14 0,1 0,1 0,1 -1,0 -2,1 -3,2 -15,8 -25,13 -38,23 -13,10 -26,36 -35,50 -9,17 -21,43 -27,64zm56 -193c-1,-1 -2,-3 -3,-6 -3,-9 0,-18 6,-26 -2,-2 -4,-4 -6,-7 -1,-3 -2,-5 -2,-8 -35,0 -67,13 -100,29 -3,1 -5,3 -7,4 -8,4 -17,10 -24,15 -3,2 -6,5 -9,8 -4,4 -12,11 -13,16 -1,3 -1,5 2,6 6,4 17,5 25,5 33,0 70,-9 101,-21 9,-4 20,-9 30,-15zm-5 -140c18,12 40,21 58,27 22,8 71,20 97,17 9,-1 10,0 20,-3 10,-3 22,-11 22,-24l0 -5c0,-16 -18,-30 -28,-37l-41 -25c-28,-16 -68,-28 -102,-29 17,35 -9,17 -27,21 -19,6 -11,10 -6,34 1,11 5,18 7,24zm-170 263c-23,0 -72,11 -110,28 4,7 6,13 10,18 22,27 -13,25 -7,37 2,3 11,21 17,30 2,0 4,-1 9,-1l59 -10c29,-5 43,-10 67,-25 11,-8 45,-33 45,-48 0,-13 -12,-19 -21,-23 -4,-2 -11,-4 -16,-5 -11,-2 -41,-1 -53,-1zm-102 -184c-7,24 -13,52 -13,77 0,18 0,39 7,55 2,5 5,10 8,13 5,4 8,7 16,7 16,0 22,-8 30,-17 4,-3 10,-14 13,-19 6,-9 12,-22 16,-32 9,-23 17,-49 22,-75 2,-16 4,-27 3,-39 -12,-8 -26,-23 -31,-32 -4,-8 -10,0 -21,5 -21,8 -16,9 -21,-2 -14,18 -23,37 -29,59zm-76 67c-10,-31 -17,-46 -36,-70l-18 -18c-14,-11 -38,-28 -51,-3 -3,6 -5,14 -5,23l0 0c0,24 0,23 3,47 4,27 16,62 29,87 1,3 2,3 3,6 4,7 12,21 20,32 31,20 16,5 43,-27 1,-2 18,2 30,6 -1,-29 -11,-61 -18,-83zm78 -149c17,-26 27,-49 36,-79 6,-23 3,-84 -6,-95 -2,-3 -11,-8 -16,-8 -9,0 -20,7 -25,11 -7,6 -13,12 -18,19 -28,34 -54,95 -60,141 11,-3 26,-9 27,-5 3,7 3,39 13,38 16,-2 22,-2 36,-3l6 -9c3,-3 5,-6 7,-10zm196 1c5,-22 8,-65 8,-89 0,-21 -4,-37 -10,-55 -1,-5 -4,-10 -6,-15 -3,-9 -10,-19 -15,-27 -4,-5 -8,-10 -13,-14 -9,-8 -19,-5 -27,3 -20,21 -28,71 -28,100 0,19 0,39 4,57 2,11 4,21 7,31 1,1 2,2 2,2 17,11 27,16 47,24 7,3 21,-6 30,-14 0,-2 1,-3 1,-3zm113 180c-17,10 -24,12 -40,25 -16,12 -30,38 -40,56 -11,18 -26,53 -31,75 0,0 0,1 0,1 4,8 9,23 17,32 6,7 37,-11 38,-8 2,4 2,14 6,23 2,-2 5,-5 6,-7 1,-1 2,-1 3,-2 24,-24 49,-68 61,-98 8,-20 16,-44 16,-68 0,-14 -5,-29 -15,-33 -6,-4 -12,-1 -17,2 -2,1 -2,1 -4,2zm-57 -5c19,-7 43,-20 59,-32 -21,-12 -29,-9 -7,-34 22,-23 -27,-5 -11,-21 2,-2 5,-6 8,-10 -51,-9 -94,5 -140,28 -3,2 -4,3 -7,4 -8,4 -20,12 -27,17 -4,3 -8,6 -11,10 -7,7 -15,14 -18,24 -5,13 2,24 11,29 9,5 21,8 35,8 36,0 76,-10 108,-23z"/>
   <path class="fil1" d="M720 191c-292,0 -529,237 -529,529 0,292 237,528 529,528 292,0 528,-236 528,-528 0,-292 -236,-529 -528,-529zm0 23c279,0 505,226 505,506 0,279 -226,505 -505,505 -280,0 -506,-226 -506,-505 0,-280 226,-506 506,-506z"/>
  </g>
 </g>
</svg>
