<?xml version="1.0" encoding="UTF-8"?>
<!DOCTYPE svg PUBLIC "-//W3C//DTD SVG 1.0//EN" "http://www.w3.org/TR/2001/REC-SVG-20010904/DTD/svg10.dtd">
<!-- Creator: CorelDRAW X7 -->
<svg xmlns="http://www.w3.org/2000/svg" xml:space="preserve" width="3.33333in" height="3.33333in" version="1.0" style="shape-rendering:geometricPrecision; text-rendering:geometricPrecision; image-rendering:optimizeQuality; fill-rule:evenodd; clip-rule:evenodd"
viewBox="0 0 1439 1439"
 xmlns:xlink="http://www.w3.org/1999/xlink">
 <defs>
  <style type="text/css">
   <![CDATA[
    .fil0 {fill:none}
    .fil1 {fill:#99CC33}
    .fil2 {fill:#99CC33}
   ]]>
  </style>
 </defs>
 <g id="Layer_x0020_1">
  <metadata id="CorelCorpID_0Corel-Layer"/>
  <rect class="fil0" width="1439" height="1439"/>
  <g id="_1901920628064">
   <path class="fil1" d="M720 191c-292,0 -529,237 -529,529 0,292 237,528 529,528 292,0 528,-236 528,-528 0,-292 -236,-529 -528,-529zm0 23c279,0 505,226 505,506 0,279 -226,505 -505,505 -280,0 -506,-226 -506,-505 0,-280 226,-506 506,-506z"/>
   <path class="fil2" d="M534 851l29 0c0,-16 12,-29 28,-29l0 -28c-31,0 -57,25 -57,57l0 0z"/>
   <path class="fil2" d="M705 794l0 28c16,0 29,13 29,29l29 0c0,-32 -26,-57 -58,-57z"/>
   <path class="fil2" d="M863 808c-32,0 -58,26 -58,57l29 0c0,-16 13,-28 29,-28 15,0 28,12 28,28l29 0c0,-31 -26,-57 -57,-57z"/>
   <path class="fil2" d="M1076 938c0,-10 1,-20 1,-30 0,-8 -6,-14 -14,-14l-29 0c0,-26 -18,-49 -43,-56 0,0 0,-1 0,-1 0,-27 -18,-50 -44,-56 -6,-26 -29,-44 -56,-44 -5,0 -11,1 -16,2 -15,-14 -37,-20 -57,-14 -5,-27 -29,-45 -55,-46 -10,0 -20,3 -29,8 -9,-5 -18,-8 -29,-8 -20,1 -39,12 -49,29 -13,2 -25,8 -34,17 -20,-6 -42,-1 -57,14 -5,-1 -11,-2 -17,-2 -26,0 -49,18 -55,44 -26,6 -45,29 -45,56l0 1c-25,7 -43,30 -43,56l-28 0c-8,0 -14,6 -14,14 0,10 0,20 1,30l29 0c-1,-5 -1,-10 -2,-16l657 0c0,6 -1,11 -1,16l29 0zm-614 -73l2 0c5,1 10,-1 13,-5 3,-4 3,-9 2,-14 -1,-3 -2,-6 -2,-9 0,-16 13,-29 28,-29 8,0 15,-6 15,-14 0,-16 13,-29 28,-29 5,0 10,2 14,4 7,4 15,2 19,-5 8,-13 25,-17 38,-9 7,4 15,1 20,-5 5,-8 13,-13 23,-13l2 0c7,0 13,-4 15,-10 4,-11 14,-19 26,-19 8,0 14,3 19,8 6,4 14,4 20,0 8,-8 19,-10 29,-6 10,4 17,14 18,24 0,4 2,7 5,10 2,2 4,4 5,6 4,6 12,9 19,5 13,-8 30,-4 38,9 4,7 13,9 19,5 5,-2 9,-4 14,-4 16,0 29,13 29,29 0,8 6,14 14,14 16,0 29,13 29,29 0,3 -1,6 -2,9 -2,5 -1,10 2,14 3,4 7,6 12,5 1,0 2,0 2,0 16,0 29,13 29,29l-572 0c0,-16 13,-29 28,-29z"/>
   <path class="fil2" d="M974 1007l0 -35c37,-8 71,-23 103,-42l-36 0c-71,27 -576,25 -643,0l-35 0c31,19 65,34 102,42l0 35c0,8 7,15 15,15l479 0c8,0 15,-7 15,-15l0 0zm-31 -16l-447 0 0 -10 447 0 0 10z"/>
   <path class="fil2" d="M867 558c55,-55 129,-86 206,-87 -8,-10 -17,-19 -26,-27 -75,7 -145,40 -199,93 -2,-16 -13,-30 -28,-35 0,-1 0,-2 0,-3 0,-19 -13,-35 -31,-41 -18,-5 -38,2 -48,18 -7,-3 -14,-5 -21,-5 -19,0 -36,12 -41,30 -18,6 -31,22 -31,41l-14 0c-8,0 -14,7 -14,15l0 12c0,48 39,88 87,88l118 0c19,0 37,-8 50,-21l28 -28c51,-52 120,-80 192,-80l18 0c-5,-10 -11,-19 -18,-29 -79,0 -156,32 -212,88l-28 29c-8,8 -19,12 -30,12l-118 0c-15,0 -30,-6 -41,-17 -11,-11 -17,-25 -18,-40l189 0c11,0 22,-5 30,-13l0 0zm-176 -30c8,0 14,-6 14,-14 0,-8 7,-15 15,-15 5,0 10,3 12,8 3,5 9,8 14,7l2 0c8,0 15,-7 15,-15 0,-7 6,-14 14,-14 8,0 14,7 14,14 0,3 -1,6 -2,8 -3,5 -2,10 1,15 3,5 8,7 14,6 4,0 8,1 11,4 3,2 5,6 5,10l-143 0c0,-8 6,-14 14,-14z"/>
  </g>
 </g>
</svg>
