<?xml version="1.0" encoding="UTF-8"?>
<!DOCTYPE svg PUBLIC "-//W3C//DTD SVG 1.0//EN" "http://www.w3.org/TR/2001/REC-SVG-20010904/DTD/svg10.dtd">
<!-- Creator: CorelDRAW X7 -->
<svg xmlns="http://www.w3.org/2000/svg" xml:space="preserve" width="12.8476in" height="2.40383in" version="1.0" style="shape-rendering:geometricPrecision; text-rendering:geometricPrecision; image-rendering:optimizeQuality; fill-rule:evenodd; clip-rule:evenodd"
viewBox="0 0 12848 2404"
 xmlns:xlink="http://www.w3.org/1999/xlink">
 <defs>
  <style type="text/css">
   <![CDATA[
    .str0 {stroke:#79A45D;stroke-width:3}
    .str1 {stroke:#FF7A00;stroke-width:3}
    .fil21 {fill:none}
    .fil12 {fill:url(#id0)}
    .fil15 {fill:url(#id1)}
    .fil16 {fill:url(#id2)}
    .fil3 {fill:url(#id3)}
    .fil18 {fill:url(#id4)}
    .fil13 {fill:url(#id5)}
    .fil2 {fill:url(#id6)}
    .fil22 {fill:url(#id7)}
    .fil29 {fill:url(#id8)}
    .fil19 {fill:url(#id9)}
    .fil14 {fill:url(#id10)}
    .fil11 {fill:url(#id11)}
    .fil30 {fill:url(#id12)}
    .fil4 {fill:url(#id13)}
    .fil23 {fill:url(#id14)}
    .fil28 {fill:url(#id15)}
    .fil10 {fill:url(#id16)}
    .fil20 {fill:url(#id17)}
    .fil26 {fill:url(#id18)}
    .fil7 {fill:url(#id19)}
    .fil24 {fill:url(#id20)}
    .fil1 {fill:url(#id21)}
    .fil5 {fill:url(#id22)}
    .fil0 {fill:url(#id23)}
    .fil8 {fill:url(#id24)}
    .fil27 {fill:url(#id25)}
    .fil6 {fill:url(#id26)}
    .fil25 {fill:url(#id27)}
    .fil17 {fill:url(#id28)}
    .fil9 {fill:url(#id29)}
   ]]>
  </style>
  <linearGradient id="id0" gradientUnits="userSpaceOnUse" x1="977.874" y1="657.193" x2="894.504" y2="299.827">
   <stop offset="0" style="stop-opacity:1; stop-color:#75B612"/>
   <stop offset="1" style="stop-opacity:1; stop-color:#3B6102"/>
  </linearGradient>
  <linearGradient id="id1" gradientUnits="userSpaceOnUse" x1="3364.37" y1="1029.88" x2="2725.22" y2="1396.37">
   <stop offset="0" style="stop-opacity:1; stop-color:#75B612"/>
   <stop offset="1" style="stop-opacity:1; stop-color:#457005"/>
  </linearGradient>
  <linearGradient id="id2" gradientUnits="userSpaceOnUse" x1="2665.93" y1="1531.16" x2="3480.5" y2="880.736">
   <stop offset="0" style="stop-opacity:1; stop-color:#75B612"/>
   <stop offset="1" style="stop-opacity:1; stop-color:#345700"/>
  </linearGradient>
  <linearGradient id="id3" gradientUnits="userSpaceOnUse" xlink:href="#id1" x1="12611" y1="1345.83" x2="11845.2" y2="1758">
  </linearGradient>
  <linearGradient id="id4" gradientUnits="userSpaceOnUse" xlink:href="#id2" x1="4293.51" y1="1525.71" x2="5105.92" y2="877.016">
  </linearGradient>
  <linearGradient id="id5" gradientUnits="userSpaceOnUse" xlink:href="#id2" x1="1958.96" y1="1721.58" x2="2341.2" y2="1310.98">
  </linearGradient>
  <linearGradient id="id6" gradientUnits="userSpaceOnUse" xlink:href="#id1" x1="11374.9" y1="1345.83" x2="10609.1" y2="1758">
  </linearGradient>
  <linearGradient id="id7" gradientUnits="userSpaceOnUse" xlink:href="#id2" x1="3372.37" y1="1647.34" x2="3854.96" y2="1261.99">
  </linearGradient>
  <linearGradient id="id8" gradientUnits="userSpaceOnUse" x1="2086.8" y1="34.9094" x2="2172.69" y2="607.165">
   <stop offset="0" style="stop-opacity:1; stop-color:red"/>
   <stop offset="1" style="stop-opacity:1; stop-color:#FFCC00"/>
  </linearGradient>
  <linearGradient id="id9" gradientUnits="userSpaceOnUse" xlink:href="#id2" x1="5494.28" y1="1898.29" x2="6385.97" y2="1186.27">
  </linearGradient>
  <linearGradient id="id10" gradientUnits="userSpaceOnUse" xlink:href="#id1" x1="2476.22" y1="1349.92" x2="1823.36" y2="1701.33">
  </linearGradient>
  <linearGradient id="id11" gradientUnits="userSpaceOnUse" xlink:href="#id2" x1="644.335" y1="1537.08" x2="1250.61" y2="885.835">
  </linearGradient>
  <linearGradient id="id12" gradientUnits="userSpaceOnUse" xlink:href="#id8" x1="2126.84" y1="18.7795" x2="2132.64" y2="623.299">
  </linearGradient>
  <linearGradient id="id13" gradientUnits="userSpaceOnUse" xlink:href="#id2" x1="10469" y1="1872.57" x2="11043.2" y2="1414.13">
  </linearGradient>
  <linearGradient id="id14" gradientUnits="userSpaceOnUse" xlink:href="#id2" x1="8584.66" y1="1898.29" x2="9476.35" y2="1186.27">
  </linearGradient>
  <linearGradient id="id15" gradientUnits="userSpaceOnUse" xlink:href="#id1" x1="10664.8" y1="1250.95" x2="9884.72" y2="1670.84">
  </linearGradient>
  <linearGradient id="id16" gradientUnits="userSpaceOnUse" xlink:href="#id1" x1="1622.22" y1="1310.31" x2="948.146" y2="1673.13">
  </linearGradient>
  <linearGradient id="id17" gradientUnits="userSpaceOnUse" xlink:href="#id1" x1="6248.02" y1="1442.33" x2="5472.48" y2="1887.03">
  </linearGradient>
  <linearGradient id="id18" gradientUnits="userSpaceOnUse" xlink:href="#id1" x1="7905.29" y1="963.705" x2="7115.46" y2="1416.59">
  </linearGradient>
  <linearGradient id="id19" gradientUnits="userSpaceOnUse" xlink:href="#id2" x1="7381.04" y1="1543.5" x2="7707.81" y2="1206.85">
  </linearGradient>
  <linearGradient id="id20" gradientUnits="userSpaceOnUse" xlink:href="#id1" x1="9338.4" y1="1442.33" x2="8562.87" y2="1887.03">
  </linearGradient>
  <linearGradient id="id21" gradientUnits="userSpaceOnUse" xlink:href="#id2" x1="9530.98" y1="978.465" x2="9820.47" y2="747.303">
  </linearGradient>
  <linearGradient id="id22" gradientUnits="userSpaceOnUse" xlink:href="#id2" x1="12298.6" y1="1821.01" x2="12629.4" y2="1465.69">
  </linearGradient>
  <linearGradient id="id23" gradientUnits="userSpaceOnUse" xlink:href="#id1" x1="10016.8" y1="750.161" x2="9701.78" y2="930.764">
  </linearGradient>
  <linearGradient id="id24" gradientUnits="userSpaceOnUse" xlink:href="#id1" x1="6944.01" y1="880.319" x2="6704.85" y2="1059.93">
  </linearGradient>
  <linearGradient id="id25" gradientUnits="userSpaceOnUse" xlink:href="#id2" x1="10052.5" y1="1699.61" x2="10497" y2="1222.19">
  </linearGradient>
  <linearGradient id="id26" gradientUnits="userSpaceOnUse" xlink:href="#id1" x1="7709.17" y1="1088.01" x2="7367.67" y2="1338.17">
  </linearGradient>
  <linearGradient id="id27" gradientUnits="userSpaceOnUse" xlink:href="#id2" x1="6668.65" y1="1617.47" x2="7302.44" y2="1111.39">
  </linearGradient>
  <linearGradient id="id28" gradientUnits="userSpaceOnUse" xlink:href="#id1" x1="4674.19" y1="948.323" x2="3750.56" y2="1477.94">
  </linearGradient>
  <linearGradient id="id29" gradientUnits="userSpaceOnUse" xlink:href="#id2" x1="6661.56" y1="1287.59" x2="6987.3" y2="968.37">
  </linearGradient>
 </defs>
 <g id="Layer_x0020_1">
  <metadata id="CorelCorpID_0Corel-Layer"/>
  <path class="fil0 str0" d="M9486 531c207,12 346,218 419,619l326 0c1,-10 2,-19 2,-28 -4,-384 -326,-586 -747,-591z"/>
  <path class="fil1 str0" d="M9905 1150c-73,-401 -212,-607 -419,-619 -13,0 -26,0 -39,0 225,195 282,429 262,664l196 -45z"/>
  <path class="fil2 str0" d="M11610 2033l0 -1180c-304,-207 -810,-207 -1068,74 -90,97 -150,228 -161,396l0 14c-9,94 -8,269 -5,372l0 689 3 0c616,-405 -35,-1529 754,-1509 98,0 196,50 196,150 0,97 2,194 4,291l0 0 -1 72 1 0 0 152 -3 0 0 0c0,205 113,384 279,480 0,0 1,-1 1,-1z"/>
  <path class="fil3 str0" d="M12678 927c-258,-281 -763,-281 -1068,-74l0 1180c165,-96 277,-275 277,-479l0 0 0 -152 1 0 -1 -72 0 0c2,-97 4,-194 4,-291 0,-100 98,-150 196,-150 789,-20 138,1104 754,1509l3 0 0 -689c3,-103 4,-278 -4,-372l0 -14c-12,-168 -72,-299 -162,-396z"/>
  <path class="fil4 str0" d="M10933 1845c0,-269 3,-537 3,-806 0,-100 99,-150 197,-150 -789,-20 -138,1104 -754,1509 305,0 554,-249 554,-553z"/>
  <path class="fil5 str0" d="M12284 1039c0,269 3,537 3,806 0,304 249,553 554,553 -616,-405 35,-1529 -754,-1509 98,0 197,50 197,150z"/>
  <path class="fil6 str0" d="M7922 1623c14,-238 -238,-416 -756,-535l-18 -285c98,-1 189,2 271,12 381,46 545,389 503,808z"/>
  <path class="fil7 str0" d="M7166 1088c518,119 770,297 756,535 -1,13 -3,26 -4,39 -203,-295 -424,-326 -735,-307l-17 -267z"/>
  <path class="fil8 str0" d="M7235 1088c-678,89 -712,-54 -821,-220l605 -36c34,-2 68,-4 103,-7l113 263z"/>
  <path class="fil9 str0" d="M6414 868c241,282 516,196 821,220l-466 300c-239,-112 -307,-237 -355,-520z"/>
  <path class="fil10 str0" d="M1740 2379c-527,-154 -823,-754 -889,-1798l0 49c0,398 -54,948 12,1305 72,389 445,528 877,444z"/>
  <path class="fil11 str0" d="M851 581c66,1044 362,1644 889,1798 -308,-184 -352,-403 -352,-716l0 -9 2 -921c2,-53 1,-103 -3,-151l220 1 2 -26c15,-204 95,-389 261,-513 -1023,17 -1638,314 -1845,889 184,-308 403,-352 716,-352l9 0 101 0z"/>
  <path class="fil12 str0" d="M25 933c207,-575 822,-872 1845,-889l1 -1c-284,-5 -684,-25 -1012,-18l-10 -1 0 1c-147,4 -280,13 -380,32 -389,72 -528,444 -444,876z"/>
  <path class="fil13 str0" d="M1704 654c92,1152 389,1727 892,1725 -308,-184 -352,-403 -353,-716l0 -9 3 -291c17,-415 -158,-669 -542,-709z"/>
  <path class="fil14 str0" d="M2596 2379c-503,2 -800,-573 -892,-1725l3 606c0,678 -104,1249 889,1119z"/>
  <path class="fil15 str0" d="M3480 2386c-417,50 -702,-737 -852,-2362l2 606c0,398 -54,948 12,1305 70,377 423,519 838,451z"/>
  <path class="fil16 str0" d="M2628 24c150,1625 435,2412 852,2362 13,-2 26,-5 39,-7 -308,-184 -352,-403 -353,-716l0 -9 3 -921c17,-415 -158,-669 -541,-709z"/>
  <path class="fil17 str0" d="M3874 2159c-347,-267 -520,-638 -521,-1112 -38,78 -61,171 -68,276 0,414 -79,740 360,989 243,126 593,115 837,-30 164,117 403,147 663,97 -479,-33 -776,-818 -891,-2355l3 606c0,296 -30,675 -19,996 2,1 3,1 4,1 -1,27 -2,48 -2,70 -3,124 -6,248 -6,373 0,141 -195,183 -310,125 -19,-9 -36,-21 -50,-36z"/>
  <path class="fil18 str0" d="M4254 24c115,1537 412,2322 891,2355 -308,-184 -352,-403 -352,-716l0 -9 0 -191c1,-40 1,-80 1,-121l1 -609c17,-415 -158,-669 -541,-709z"/>
  <path class="fil19 str0" d="M5489 2070c0,-172 -3,-344 -7,-515 4,-172 7,-344 7,-516 0,-200 393,-200 393,0 158,879 462,1326 911,1340 -284,-170 -344,-369 -351,-645 0,-184 -7,-365 -37,-526 -91,-515 -946,-678 -1311,-281 -43,684 114,1105 471,1265 -45,-25 -76,-65 -76,-122z"/>
  <path class="fil20 str0" d="M5565 2192c-357,-160 -514,-581 -471,-1265 -90,97 -149,228 -161,396l0 14c-6,69 -6,142 -5,218 -1,76 -1,148 5,218l0 13c20,291 156,482 414,551 239,98 556,79 783,-55 164,117 403,147 663,97 -449,-14 -753,-461 -911,-1340 0,97 1,194 3,291l0 0c-2,116 -2,231 3,338 -3,134 -6,268 -6,402 0,144 -203,185 -317,122z"/>
  <path class="fil21 str0" d="M1870 44c-1023,17 -1638,314 -1845,889"/>
  <path class="fil21 str0" d="M851 581c66,1044 362,1644 889,1798"/>
  <path class="fil21" d="M2551 23c-188,233 -470,413 -846,540"/>
  <path class="fil21 str0" d="M3924 2195c-380,-269 -570,-652 -571,-1148"/>
  <path class="fil22 str0" d="M3353 1047c1,474 174,845 521,1112 -21,-23 -33,-53 -33,-89 0,-174 -3,-348 -7,-522 -6,-265 -12,-531 -11,-798 -232,25 -388,128 -470,297z"/>
  <path class="fil21 str0" d="M5565 2192c-357,-160 -514,-581 -471,-1265"/>
  <path class="fil21 str0" d="M6793 2379c-449,-14 -753,-461 -911,-1340"/>
  <path class="fil23 str0" d="M8579 2070c0,-172 -3,-344 -7,-515 4,-172 7,-344 7,-516 0,-200 393,-200 393,0 158,879 462,1326 912,1340 -285,-170 -344,-369 -352,-645 1,-184 -7,-365 -37,-526 -91,-515 -946,-678 -1311,-281 -43,684 114,1105 471,1265 -45,-25 -76,-65 -76,-122z"/>
  <path class="fil24 str0" d="M8655 2192c-357,-160 -514,-581 -471,-1265 -89,97 -149,228 -161,396l0 14c-6,69 -6,142 -4,218 -2,76 -2,148 4,218l0 13c21,291 156,482 414,551 239,98 557,79 783,-55 165,117 403,147 664,97 -450,-14 -754,-461 -912,-1340 0,97 2,194 4,291l-1 0c-2,116 -2,231 3,338 -3,134 -6,268 -6,402 0,144 -202,185 -317,122z"/>
  <path class="fil21 str0" d="M8655 2192c-357,-160 -514,-581 -471,-1265"/>
  <path class="fil21 str0" d="M9884 2379c-450,-14 -754,-461 -912,-1340"/>
  <path class="fil25 str0" d="M7257 2379c-74,-986 -223,-1662 -446,-2029 -54,108 -85,243 -93,405l-1 185c0,40 0,80 0,121l-1 608c-18,415 157,669 541,710z"/>
  <path class="fil26 str0" d="M8210 521c-36,-164 -126,-307 -344,-430 -331,-171 -875,-103 -1055,259 223,367 372,1043 446,2029l-3 -607c0,-295 30,-674 18,-996 -1,0 -2,0 -4,0 1,-28 2,-49 3,-70 3,-124 6,-248 6,-373 0,-141 195,-183 310,-126 19,10 36,22 49,37 21,23 34,52 34,89 0,68 1,126 1,178 75,279 527,248 539,10z"/>
  <path class="fil27 str0" d="M9777 1645c134,-653 427,-1055 1087,-1121 -455,122 -640,551 -640,864l0 10 2 247c0,244 -16,475 2,753 -384,-41 -559,-295 -542,-710l1 -43 90 0z"/>
  <path class="fil28 str0" d="M10864 524c-777,81 -1208,1114 -636,1874 -384,-41 -559,-295 -542,-710l1 -43 1 0c6,-850 87,-1110 1176,-1121z"/>
  <path class="fil29" d="M1729 618c178,-256 446,-454 802,-594 -92,4 -375,3 -380,3 -278,33 -401,263 -422,591z"/>
  <path class="fil30" d="M2531 24c-356,140 -624,338 -802,594 173,-7 211,4 399,-4 1,5 370,-70 403,-590z"/>
  <path class="fil21 str1" d="M1729 618c178,-256 446,-454 802,-594"/>
 </g>
</svg>
