<?xml version="1.0" encoding="UTF-8"?>
<!DOCTYPE svg PUBLIC "-//W3C//DTD SVG 1.0//EN" "http://www.w3.org/TR/2001/REC-SVG-20010904/DTD/svg10.dtd">
<!-- Creator: CorelDRAW X7 -->
<svg xmlns="http://www.w3.org/2000/svg" xml:space="preserve" width="12.1714in" height="3.78489in" version="1.0" style="shape-rendering:geometricPrecision; text-rendering:geometricPrecision; image-rendering:optimizeQuality; fill-rule:evenodd; clip-rule:evenodd"
viewBox="0 0 13155 4091"
 xmlns:xlink="http://www.w3.org/1999/xlink">
 <defs>
  <style type="text/css">
   <![CDATA[
    .str0 {stroke:#79A45D;stroke-width:3.24239}
    .str1 {stroke:#FF7A00;stroke-width:3.24239}
    .fil4 {fill:none}
    .fil14 {fill:#6B809B}
    .fil16 {fill:url(#id0)}
    .fil12 {fill:url(#id1)}
    .fil23 {fill:url(#id2)}
    .fil27 {fill:url(#id3)}
    .fil24 {fill:url(#id4)}
    .fil20 {fill:url(#id5)}
    .fil17 {fill:url(#id6)}
    .fil6 {fill:url(#id7)}
    .fil10 {fill:url(#id8)}
    .fil5 {fill:url(#id9)}
    .fil15 {fill:url(#id10)}
    .fil1 {fill:url(#id11)}
    .fil22 {fill:url(#id12)}
    .fil26 {fill:url(#id13)}
    .fil0 {fill:url(#id14)}
    .fil18 {fill:url(#id15)}
    .fil7 {fill:url(#id16)}
    .fil3 {fill:url(#id17)}
    .fil8 {fill:url(#id18)}
    .fil2 {fill:url(#id19)}
    .fil11 {fill:url(#id20)}
    .fil19 {fill:url(#id21)}
    .fil9 {fill:url(#id22)}
    .fil13 {fill:url(#id23)}
    .fil21 {fill:url(#id24)}
    .fil25 {fill:url(#id25)}
   ]]>
  </style>
  <linearGradient id="id0" gradientUnits="userSpaceOnUse" x1="8692.93" y1="1645.98" x2="8873.66" y2="1951.32">
   <stop offset="0" style="stop-opacity:1; stop-color:#75B612"/>
   <stop offset="1" style="stop-opacity:1; stop-color:#345700"/>
  </linearGradient>
  <linearGradient id="id1" gradientUnits="userSpaceOnUse" xlink:href="#id0" x1="9315.43" y1="2640.42" x2="10067.7" y2="2039.74">
  </linearGradient>
  <linearGradient id="id2" gradientUnits="userSpaceOnUse" x1="5441.49" y1="1173.17" x2="5448.6" y2="432.876">
   <stop offset="0" style="stop-opacity:1; stop-color:red"/>
   <stop offset="1" style="stop-opacity:1; stop-color:#FFCC00"/>
  </linearGradient>
  <linearGradient id="id3" gradientUnits="userSpaceOnUse" xlink:href="#id2" x1="4251.83" y1="3314.45" x2="4259.33" y2="4096.39">
  </linearGradient>
  <linearGradient id="id4" gradientUnits="userSpaceOnUse" xlink:href="#id2" x1="3162.2" y1="3335.32" x2="3273.31" y2="4075.53">
  </linearGradient>
  <linearGradient id="id5" gradientUnits="userSpaceOnUse" xlink:href="#id2" x1="4170.76" y1="820.192" x2="4291.14" y2="18.2161">
  </linearGradient>
  <linearGradient id="id6" gradientUnits="userSpaceOnUse" x1="9996.88" y1="2175.51" x2="9386.9" y2="2525.28">
   <stop offset="0" style="stop-opacity:1; stop-color:#75B612"/>
   <stop offset="1" style="stop-opacity:1; stop-color:#457005"/>
  </linearGradient>
  <linearGradient id="id7" gradientUnits="userSpaceOnUse" xlink:href="#id0" x1="3088.39" y1="2467.96" x2="1387.04" y2="647.213">
  </linearGradient>
  <linearGradient id="id8" gradientUnits="userSpaceOnUse" xlink:href="#id2" x1="10496.4" y1="1200.29" x2="10503.9" y2="418.349">
  </linearGradient>
  <linearGradient id="id9" gradientUnits="userSpaceOnUse" xlink:href="#id0" x1="3598.29" y1="2194.13" x2="3161.19" y2="928.744">
  </linearGradient>
  <linearGradient id="id10" gradientUnits="userSpaceOnUse" xlink:href="#id0" x1="7863.78" y1="3371.02" x2="7592.09" y2="1326.93">
  </linearGradient>
  <linearGradient id="id11" gradientUnits="userSpaceOnUse" xlink:href="#id0" x1="4437.13" y1="2942.4" x2="4406.04" y2="1498.51">
  </linearGradient>
  <linearGradient id="id12" gradientUnits="userSpaceOnUse" xlink:href="#id2" x1="5392.45" y1="1153.41" x2="5497.64" y2="452.632">
  </linearGradient>
  <linearGradient id="id13" gradientUnits="userSpaceOnUse" xlink:href="#id2" x1="4200.03" y1="3335.32" x2="4311.14" y2="4075.53">
  </linearGradient>
  <linearGradient id="id14" gradientUnits="userSpaceOnUse" xlink:href="#id0" x1="5622.05" y1="2779.77" x2="4273.69" y2="1661.28">
  </linearGradient>
  <linearGradient id="id15" gradientUnits="userSpaceOnUse" xlink:href="#id0" x1="11696.7" y1="2477.51" x2="12561.6" y2="1786.87">
  </linearGradient>
  <linearGradient id="id16" gradientUnits="userSpaceOnUse" xlink:href="#id0" x1="1989.36" y1="2945.02" x2="1321.17" y2="2343.1">
  </linearGradient>
  <linearGradient id="id17" gradientUnits="userSpaceOnUse" xlink:href="#id0" x1="703.121" y1="1579.96" x2="272.182" y2="1491.32">
  </linearGradient>
  <linearGradient id="id18" gradientUnits="userSpaceOnUse" xlink:href="#id0" x1="2291.52" y1="1272.09" x2="1260.2" y2="2198.13">
  </linearGradient>
  <linearGradient id="id19" gradientUnits="userSpaceOnUse" xlink:href="#id0" x1="349.578" y1="1536.59" x2="645.775" y2="1560.39">
  </linearGradient>
  <linearGradient id="id20" gradientUnits="userSpaceOnUse" xlink:href="#id0" x1="10177.5" y1="2640.42" x2="10929.8" y2="2039.74">
  </linearGradient>
  <linearGradient id="id21" gradientUnits="userSpaceOnUse" xlink:href="#id6" x1="12213.5" y1="2002.79" x2="11001.1" y2="2698.01">
  </linearGradient>
  <linearGradient id="id22" gradientUnits="userSpaceOnUse" xlink:href="#id2" x1="10444.6" y1="1179.42" x2="10555.7" y2="439.22">
  </linearGradient>
  <linearGradient id="id23" gradientUnits="userSpaceOnUse" xlink:href="#id0" x1="7223.81" y1="2671.9" x2="8012.31" y2="1824.91">
  </linearGradient>
  <linearGradient id="id24" gradientUnits="userSpaceOnUse" xlink:href="#id2" x1="4226.89" y1="842.803" x2="4235.02" y2="-4.39126">
  </linearGradient>
  <linearGradient id="id25" gradientUnits="userSpaceOnUse" xlink:href="#id2" x1="3214" y1="3314.45" x2="3221.51" y2="4096.39">
  </linearGradient>
 </defs>
 <g id="Layer_x0020_1">
  <metadata id="CorelCorpID_0Corel-Layer"/>
  <path class="fil0 str0" d="M5612 1320c-588,262 86,2112 -1340,1645 395,300 1213,166 1311,-388 70,-379 27,-859 29,-1257z"/>
  <path class="fil1 str0" d="M4272 2965c1426,467 752,-1383 1340,-1645 -370,39 -562,261 -588,626 0,390 -7,361 -10,528 -2,96 -2,192 -2,288 0,219 -430,219 -430,0 0,-96 -1,-192 -2,-288 0,0 0,0 0,-1 -2,-89 -5,-123 -7,-195 1,0 2,-1 4,-1 -7,-318 -16,-637 -14,-957 -589,262 94,2118 -1332,1651 265,199 779,203 1041,-6z"/>
  <path class="fil2 str0" d="M959 2583c72,-389 13,-1483 13,-1918l2 -662c-35,1932 -360,2954 -973,3065 472,92 879,-60 958,-485z"/>
  <path class="fil3 str0" d="M1 3068c613,-111 938,-1133 973,-3065 -418,44 -609,321 -591,775l3 1498 0 11c0,341 -49,581 -385,781z"/>
  <path class="fil4 str0" d="M4563 1320c-589,262 94,2118 -1332,1651"/>
  <path class="fil4 str0" d="M3517 3c-704,408 484,3587 -1320,2958"/>
  <path class="fil4 str0" d="M1194 1325c826,248 1213,521 1159,820 25,420 -440,728 -1395,925"/>
  <path class="fil5 str0" d="M3231 2971c1426,467 743,-1389 1332,-1651 -371,39 -562,261 -588,626 0,531 -13,285 -13,816 0,219 -429,219 -429,0 0,-519 -18,-1583 -18,-2099l2 -660c-704,408 484,3587 -1320,2958 262,202 766,218 1034,10z"/>
  <path class="fil6 str0" d="M2197 2961c1804,629 616,-2550 1320,-2958 -370,39 -561,261 -587,626l0 2133c0,219 -431,219 -431,0l0 -168 0 -167 0 -339c0,-325 -167,-683 -515,-747 -285,-53 -502,-15 -790,-16 826,248 1213,521 1159,820 6,24 6,49 -1,73 -30,383 -495,667 -1394,852 321,31 973,118 1239,-109z"/>
  <path class="fil7 str0" d="M958 3070c899,-185 1364,-469 1394,-852 -35,136 -261,265 -668,265 -73,0 -23,-2 -95,-2 -304,4 -575,62 -631,589z"/>
  <path class="fil8 str0" d="M1194 1325c43,414 252,541 557,575 92,11 48,9 138,16 284,22 437,121 464,229 54,-299 -333,-572 -1159,-820z"/>
  <path class="fil9" d="M9981 425c231,331 577,588 1038,769 -119,-5 -485,-5 -492,-5 -358,-42 -519,-340 -546,-764z"/>
  <path class="fil10" d="M11019 1194c-461,-181 -807,-438 -1038,-769 225,9 274,-5 517,5 1,-6 478,90 521,764z"/>
  <path class="fil4 str1" d="M9981 425c231,331 577,588 1038,769"/>
  <path class="fil11 str0" d="M10061 3331c553,-32 881,-743 985,-1982 -376,40 -570,265 -596,636 -10,146 -5,406 -8,551 1,23 4,46 8,68 -7,312 -70,537 -389,727z"/>
  <path class="fil12 str0" d="M9199 3331c519,-72 847,-783 985,-1982 -424,45 -617,326 -598,784l3 397 0 10c-1,346 -49,588 -390,791z"/>
  <path class="fil13 str0" d="M9448 2468c-32,665 -912,838 -1270,532 -205,158 -556,203 -831,118 -283,-105 -450,-289 -501,-550 -16,-80 -23,-211 -21,-295 -4,-190 -7,-380 -7,-569 0,-222 -434,-222 -434,0 0,252 3,526 -4,779l0 314 -1 0c-337,0 -612,-275 -612,-612l0 0 0 -295 0 0c0,-565 1084,-749 1487,-310 63,68 114,138 147,228 54,148 39,309 36,465 1,53 1,105 0,155l0 370c0,222 435,222 435,0l0 -169 0 -169 0 -343c0,-329 170,-690 522,-756 325,-29 738,-14 1075,-16 -44,419 -256,654 -563,688 -302,1 -566,2 -642,2 -221,0 -221,434 0,434 133,0 705,-1 1184,-1z"/>
  <path class="fil4 str0" d="M6379 2797c-565,-327 -479,-1257 222,-1260 942,0 257,1542 1028,1426"/>
  <path class="fil4 str0" d="M9469 1345c-928,124 -1385,426 -1371,907"/>
  <path class="fil4 str0" d="M9448 2468c-366,321 -770,486 -1819,495"/>
  <path class="fil14 str0" d="M6601 1537c-701,3 -787,933 -222,1260l1 0 0 -314c7,-253 4,-527 4,-779 0,-111 108,-167 217,-167zm1028 1426c-771,116 -86,-1426 -1028,-1426 108,0 217,56 217,167 0,189 3,379 7,569 -2,84 5,215 21,295 51,261 218,445 501,550 275,85 626,40 831,-118 358,306 1238,133 1270,-532 -359,315 -755,479 -1760,495 -20,2 -40,2 -59,0z"/>
  <path class="fil15 str0" d="M6601 1537c108,0 217,56 217,167 0,189 3,379 7,569 -2,84 5,215 21,295 51,261 218,445 501,550 275,85 626,40 831,-118 358,306 1238,133 1270,-532 -359,315 -755,479 -1760,495 -20,2 -40,2 -59,0 -771,116 -86,-1426 -1028,-1426zm-4 0c-697,6 -782,934 -218,1260l1 0 0 -314c7,-253 4,-527 4,-779 0,-111 108,-167 217,-167 -1,0 -2,0 -4,0z"/>
  <path class="fil4 str0" d="M11286 2924c923,0 81,-1470 1043,-1470"/>
  <path class="fil16 str0" d="M8906 2033c307,-34 519,-269 563,-688 -928,124 -1385,426 -1371,907 0,-109 55,-217 166,-217 76,0 340,-1 642,-2z"/>
  <path class="fil17 str0" d="M10184 1349c-210,1079 -497,1859 -985,1982 1096,144 982,-487 982,-1236l3 -746z"/>
  <path class="fil18 str0" d="M11483 1895c0,319 0,576 -1,787l0 76c0,59 -30,102 -75,129l-9 6c-33,18 -72,28 -112,31 910,0 105,-1339 1002,-1381 14,-1 28,-1 41,-1 104,5 204,60 204,166 0,190 4,379 7,569 -3,165 -6,241 -7,405l0 76c0,59 -30,102 -75,129l-9 6c-30,16 -66,26 -103,30 486,-32 625,-572 627,-1335 -2,-1 -3,-3 -4,-4 -403,-438 -1486,-254 -1486,311z"/>
  <path class="fil19 str0" d="M12973 1588c-2,763 -141,1303 -627,1335 -13,1 -26,2 -39,1 -106,-3 -208,-58 -208,-166 0,-74 -1,-148 -2,-222 -2,-74 -3,-148 -5,-222 6,-118 6,-169 3,-298l0 0c2,-107 4,-213 4,-321 0,-101 91,-143 189,-152 -897,42 -92,1381 -1002,1381 -115,7 -238,-48 -238,-166 0,-375 -2,-1057 -2,-1409 -104,1239 -432,1950 -985,1982 514,67 762,-36 880,-241 311,100 678,63 884,-98 516,307 1272,160 1322,-547l0 -15c7,-77 7,-69 5,-153 2,-84 2,-164 -5,-240l0 -15c-13,-183 -78,-327 -174,-434z"/>
  <path class="fil20 str1" d="M3669 3c250,359 625,637 1124,833 -129,-6 -525,-5 -533,-5 -388,-46 -562,-369 -591,-828z"/>
  <path class="fil21" d="M4793 836c-499,-196 -874,-474 -1124,-833 243,10 296,-5 560,6 0,-8 517,97 564,827z"/>
  <path class="fil4 str1" d="M3669 3c250,359 625,637 1124,833"/>
  <path class="fil22 str1" d="M5936 439c-218,314 -546,557 -982,728 112,-5 459,-4 465,-4 340,-40 492,-323 517,-724z"/>
  <path class="fil23" d="M4954 1167c436,-171 764,-414 982,-728 -212,9 -259,-4 -489,5 0,-6 -452,85 -493,723z"/>
  <path class="fil4 str1" d="M5936 439c-218,314 -546,557 -982,728"/>
  <path class="fil24" d="M2699 4090c231,-332 577,-588 1038,-769 -119,5 -485,4 -492,5 -359,42 -519,340 -546,764z"/>
  <path class="fil25" d="M3737 3321c-461,181 -807,437 -1038,769 224,-9 273,5 517,-6 0,7 478,-90 521,-763z"/>
  <path class="fil4 str1" d="M2699 4090c231,-332 577,-588 1038,-769"/>
  <path class="fil26" d="M4774 4090c-230,-332 -576,-588 -1037,-769 119,5 484,4 491,5 359,42 519,340 546,764z"/>
  <path class="fil27" d="M3737 3321c461,181 807,437 1037,769 -224,-9 -273,5 -517,-6 0,7 -477,-90 -520,-763z"/>
  <path class="fil4 str1" d="M4774 4090c-230,-332 -576,-588 -1037,-769"/>
 </g>
</svg>
